<?xml version="1.0" encoding="iso-8859-1"?><svg xmlns="http://www.w3.org/2000/svg" xml:space="preserve" viewBox="0 0 512 512"><path d="M320.095 504.189c-8.842 0-16.01-7.168-16.01-16.01v-88.055h32.02v88.055c.001 8.842-7.168 16.01-16.01 16.01z" style="fill:#9e005d"/><circle cx="192.011" cy="63.914" r="24.016" style="fill:#c1272d"/><path d="M192.016 39.899c-4.397 0-8.463 1.267-12.008 3.331 7.148 4.161 12.008 11.817 12.008 20.684s-4.859 16.524-12.008 20.684c3.545 2.063 7.611 3.331 12.008 3.331 13.263 0 24.015-10.752 24.015-24.015s-10.752-24.015-24.015-24.015z" style="fill:#ff1d25"/><path d="M212.106 239.309h-40.179c-6.589 0-11.93-5.342-11.93-11.931v-.154c0-6.589 5.342-11.931 11.93-11.931h40.179c6.589 0 11.93 5.342 11.93 11.931v.154c0 6.589-5.342 11.931-11.93 11.931z" style="fill:#2b8838"/><path d="M205.095 288.055h-26.157c-10.461 0-18.941-8.481-18.941-18.941v-10.147c0-10.461 8.481-18.941 18.941-18.941h26.157c10.461 0 18.941 8.481 18.941 18.941v10.147c0 10.46-8.481 18.941-18.941 18.941z" style="fill:#8c6239"/><path d="M200.021 229.238c0 5.624-4.56 10.297-10.183 10.297h24.015c5.624 0 10.381-4.785 10.381-10.409v-3.648c0-5.624-4.756-9.896-10.381-9.896h-24.015c5.624 0 10.183 4.472 10.183 10.097" style="fill:#39b54a"/><path d="M200.021 275.329c0 7.146-5.794 13.155-12.94 13.155h24.015c7.146 0 13.138-6.223 13.138-13.369v-22.15c0-7.148-5.99-13.43-13.138-13.43h-24.015c7.146 0 12.94 6.145 12.94 13.292" style="fill:#a67c52"/><path d="M212.029 135.959h-40.025c-6.632 0-12.007-5.376-12.007-12.008 0-6.632 5.376-12.008 12.007-12.008h40.025c6.632 0 12.007 5.376 12.007 12.008 0 6.632-5.376 12.008-12.007 12.008z" style="fill:#2b8838"/><path d="M210.185 183.989h-36.339c-7.65 0-13.85-6.201-13.85-13.85V149.81c0-7.649 6.201-13.85 13.85-13.85h36.339c7.65 0 13.85 6.201 13.85 13.85v20.329c.001 7.649-6.2 13.85-13.85 13.85z" style="fill:#8c6239"/><path d="M200.021 126.011c0 5.624-4.56 10.42-10.183 10.42h24.015c5.624 0 10.381-5.031 10.381-10.655v-3.648c0-5.624-4.756-9.65-10.381-9.65h-24.015c5.624 0 10.183 4.411 10.183 10.035" style="fill:#39b54a"/><path d="M200.021 171.224c0 7.146-5.794 13.114-12.94 13.114h24.015c7.146 0 13.138-6.143 13.138-13.289v-22.15c0-7.148-5.99-12.468-13.138-12.468h-24.015c7.146 0 12.94 5.645 12.94 12.791" style="fill:#a67c52"/><path d="M240.046 311.396c0 27.078-21.504 48.03-48.03 48.03s-48.03-20.952-48.03-48.03h96.06z" style="fill:#f2f2f2"/><path d="M216.031 311.396c0 22.912-15.318 41.453-36.023 46.793 3.845.991 7.854 1.406 12.008 1.406 26.526 0 48.03-21.121 48.03-48.199h-24.015z" style="fill:#fff"/><path d="M192.016 504.189c-8.842 0-16.01-7.168-16.01-16.01v-88.055h32.02v88.055c-.001 8.842-7.168 16.01-16.01 16.01z" style="fill:#9e005d"/><path d="M176.004 400.128h32.02v24.016h-32.02z" style="fill:#fbb03b"/><circle cx="320.1" cy="63.914" r="24.016" style="fill:#c1272d"/><path d="M320.095 39.899c-4.397 0-8.463 1.267-12.008 3.331 7.148 4.161 12.008 11.817 12.008 20.684s-4.859 16.524-12.008 20.684c3.545 2.063 7.611 3.331 12.008 3.331 13.263 0 24.015-10.752 24.015-24.015s-10.752-24.015-24.015-24.015z" style="fill:#ff1d25"/><path d="M340.185 239.309h-40.179c-6.589 0-11.931-5.342-11.931-11.931v-.154c0-6.589 5.342-11.931 11.931-11.931h40.179c6.589 0 11.931 5.342 11.931 11.931v.154c0 6.589-5.342 11.931-11.931 11.931z" style="fill:#2b8838"/><path d="M332.067 288.055h-23.942c-11.073 0-20.049-8.976-20.049-20.049v-7.933c0-11.073 8.976-20.049 20.049-20.049h23.942c11.073 0 20.049 8.976 20.049 20.049v7.933c0 11.072-8.976 20.049-20.049 20.049z" style="fill:#8c6239"/><path d="M328.101 229.238c0 5.624-4.56 10.297-10.183 10.297h24.015c5.624 0 10.4-4.785 10.4-10.409v-3.648c0-5.624-4.776-9.896-10.4-9.896h-24.015c5.624 0 10.183 4.472 10.183 10.097" style="fill:#39b54a"/><path d="M328.101 275.329c0 7.146-5.794 13.155-12.94 13.155h24.015c7.146 0 13.157-6.223 13.157-13.369v-22.15c0-7.148-6.01-13.43-13.157-13.43h-24.015c7.146 0 12.94 6.145 12.94 13.292" style="fill:#a67c52"/><path d="M340.108 135.959h-40.025c-6.632 0-12.008-5.376-12.008-12.008 0-6.632 5.376-12.008 12.008-12.008h40.025c6.632 0 12.008 5.376 12.008 12.008 0 6.632-5.376 12.008-12.008 12.008z" style="fill:#2b8838"/><path d="M338.265 183.989h-36.339c-7.649 0-13.85-6.201-13.85-13.85V149.81c0-7.649 6.201-13.85 13.85-13.85h36.339c7.65 0 13.85 6.201 13.85 13.85v20.329c.001 7.649-6.201 13.85-13.85 13.85z" style="fill:#8c6239"/><path d="M328.101 126.011c0 5.624-4.56 10.42-10.183 10.42h24.015c5.624 0 10.4-5.031 10.4-10.655v-3.648c0-5.624-4.776-9.65-10.4-9.65h-24.015c5.624 0 10.183 4.411 10.183 10.035" style="fill:#39b54a"/><path d="M328.101 171.224c0 7.146-5.794 13.114-12.94 13.114h24.015c7.146 0 13.157-6.143 13.157-13.289v-22.15c0-7.148-6.01-12.468-13.157-12.468h-24.015c7.146 0 12.94 5.645 12.94 12.791" style="fill:#a67c52"/><path d="M368.125 311.396c0 27.078-21.504 48.03-48.03 48.03s-48.03-20.952-48.03-48.03h96.06z" style="fill:#f2f2f2"/><path d="M344.11 311.396c0 22.912-15.318 41.453-36.023 46.793 3.845.991 7.854 1.406 12.008 1.406 26.526 0 48.03-21.121 48.03-48.199H344.11z" style="fill:#fff"/><path d="M304.082 400.128h32.02v24.016h-32.02z" style="fill:#fbb03b"/><path d="M200.28 383.256h-15.622v9.057h-16.463v95.866c0 13.135 10.686 23.821 23.821 23.821 13.134 0 23.82-10.686 23.82-23.821v-95.866H200.28v-9.057zm-.066 104.923c0 4.521-3.677 8.199-8.198 8.199s-8.199-3.678-8.199-8.199v-55.974h16.398v55.974zm0-71.596h-16.398v-8.648h16.398v8.648zM200.28 304.105v-8.24h5.772c14.223 0 25.796-11.572 25.796-25.796v-12.06c0-4.689-1.264-9.087-3.46-12.88 2.105-1.675 3.46-4.252 3.46-7.145v-21.365c0-5.038-4.099-9.136-9.136-9.136H200.28V191.8h5.772c14.223 0 25.796-11.572 25.796-25.796v-12.06c0-4.491-1.156-8.715-3.182-12.396 1.944-1.677 3.182-4.151 3.182-6.914V113.27c0-5.038-4.099-9.136-9.136-9.136H200.28v-9.488c13.554-3.648 23.562-16.041 23.562-30.731s-10.008-27.083-23.562-30.731V0h-15.622v32.957c-14.012 3.33-24.468 15.943-24.468 30.958s10.456 27.628 24.468 30.958v9.262h-23.337c-5.038 0-9.136 4.098-9.136 9.136v21.366c0 2.763 1.237 5.237 3.182 6.914-2.026 3.682-3.182 7.906-3.182 12.396v12.06c0 14.224 11.572 25.796 25.797 25.796h6.677v15.683h-23.337c-5.038 0-9.136 4.099-9.136 9.136v21.365c0 2.892 1.355 5.47 3.46 7.145-2.195 3.793-3.46 8.19-3.46 12.88v12.06c0 14.224 11.572 25.796 25.797 25.796h6.677v8.237h-48.948v7.811c0 28.894 21.089 51.994 48.948 55.393v8.657h15.622v-8.835c11.801-1.741 22.771-7.091 31.248-15.501 10.561-10.477 16.659-24.582 16.659-39.714v-7.811H200.28zM175.811 63.914c0-8.935 7.269-16.204 16.205-16.204 8.936 0 16.204 7.269 16.204 16.204s-7.268 16.204-16.204 16.204-16.205-7.269-16.205-16.204zm-8.005 55.841h48.418v8.393h-48.419v-8.393h.001zm10.174 56.423c-5.61 0-10.175-4.564-10.175-10.174v-12.06c0-5.61 4.565-10.174 10.175-10.174h28.07c5.61 0 10.174 4.564 10.174 10.174v12.06c0 5.61-4.564 10.174-10.174 10.174h-28.07zm-10.174 46.927h48.418v8.393h-48.418v-8.393zm10.174 57.139c-5.61 0-10.175-4.564-10.175-10.174v-12.06c0-5.61 4.565-10.174 10.175-10.174h28.07c5.61 0 10.174 4.564 10.174 10.174v12.06c0 5.61-4.564 10.174-10.174 10.174h-28.07zm14.036 71.891c-19.873 0-35.952-13.718-39.492-32.408h78.984c-3.54 18.69-19.619 32.408-39.492 32.408zM327.338 383.256h-15.622v9.057h-15.441v95.866c0 13.135 10.686 23.821 23.821 23.821 13.134 0 23.82-10.686 23.82-23.821v-95.866h-16.579v-9.057zm.957 104.923c0 4.521-3.677 8.199-8.198 8.199-4.521 0-8.199-3.678-8.199-8.199v-55.974h16.398v55.974zm0-80.244v8.648h-16.398v-8.648h16.398zM327.338 304.105v-8.24h6.793c14.223 0 25.796-11.572 25.796-25.796v-12.06c0-4.689-1.264-9.087-3.46-12.88 2.105-1.675 3.46-4.252 3.46-7.145v-21.365c0-5.038-4.099-9.136-9.136-9.136h-23.454V191.8h6.793c14.223 0 25.796-11.572 25.796-25.796v-12.06c0-4.491-1.156-8.715-3.182-12.396 1.944-1.677 3.182-4.151 3.182-6.914V113.27c0-5.038-4.099-9.136-9.136-9.136h-23.454v-9.235c14.07-3.288 24.584-15.928 24.584-30.984s-10.515-27.697-24.584-30.984V0h-15.622v33.216c-13.495 3.689-23.446 16.05-23.446 30.698s9.951 27.01 23.446 30.698v9.521h-22.315c-5.038 0-9.135 4.098-9.135 9.136v21.365c0 2.763 1.237 5.237 3.182 6.914-2.026 3.68-3.182 7.906-3.182 12.395v12.06c0 14.224 11.572 25.796 25.796 25.796h5.655v15.683H289.4c-5.038 0-9.135 4.099-9.135 9.136v21.365c0 2.892 1.355 5.471 3.46 7.145-2.195 3.793-3.46 8.19-3.46 12.879v12.06c0 14.224 11.572 25.796 25.796 25.796h5.655v8.241h-47.907v7.811c0 28.537 20.56 51.429 47.907 55.266v8.784h15.622v-8.701c12.193-1.576 23.563-6.98 32.285-15.633 10.561-10.477 16.663-24.582 16.663-39.714v-7.812h-48.948zM303.891 63.914c0-8.935 7.269-16.204 16.205-16.204 8.936 0 16.204 7.269 16.204 16.204s-7.268 16.204-16.204 16.204c-8.935 0-16.205-7.269-16.205-16.204zm-8.004 55.841h48.417v8.393H295.887v-8.393zm0 46.249v-12.06c0-5.61 4.564-10.174 10.174-10.174h28.07c5.61 0 10.174 4.564 10.174 10.174v12.06c0 5.61-4.564 10.174-10.174 10.174h-28.07c-5.611 0-10.174-4.564-10.174-10.174zm0 57.101h48.417v8.393h-48.417v-8.393zm10.174 57.139c-5.61 0-10.174-4.564-10.174-10.174v-12.06c0-5.61 4.564-10.174 10.174-10.174h28.07c5.61 0 10.174 4.564 10.174 10.174v12.06c0 5.61-4.564 10.174-10.174 10.174h-28.07zm14.034 71.891c-19.873 0-35.952-13.718-39.492-32.408h78.984c-3.539 18.69-19.619 32.408-39.492 32.408z"/></svg>