<?xml version="1.0" encoding="iso-8859-1"?><svg xmlns="http://www.w3.org/2000/svg" xml:space="preserve" viewBox="0 0 511.982 511.982"><path d="M452.781 271.267c0-22.111-17.924-40.036-40.036-40.036-1.444 0-2.868.082-4.267.241-9.025 1.025-18.038-1.661-24.124-8.403-8.791-9.739-21.513-15.86-35.666-15.86-3.087 0-6.104.296-9.025.859-9.875 1.904-19.809-1.622-25.769-9.722-17.472-23.747-45.558-39.179-77.305-39.179-28.923 0-54.797 12.821-72.391 33.056-6.366 7.322-16.178 10.28-25.69 8.371-4.532-.909-9.216-1.391-14.018-1.391-39.8 0-72.063 32.264-72.063 72.063" style="fill:#fff"/><path d="M412.746 231.233c-1.444 0-2.868.082-4.267.241-9.025 1.025-18.038-1.662-24.124-8.403-8.791-9.739-21.513-15.86-35.666-15.86-3.087 0-6.104.296-9.025.859-9.875 1.904-19.809-1.622-25.769-9.722-17.472-23.747-45.558-39.18-77.305-39.18-10.642 0-20.869 1.742-30.425 4.944 18.951 6.347 35.259 18.451 46.873 34.236 5.961 8.1 15.895 11.626 25.769 9.722 2.921-.563 5.937-.859 9.025-.859 14.153 0 26.875 6.122 35.666 15.86 6.086 6.742 15.1 9.428 24.124 8.403 1.399-.159 2.822-.241 4.267-.241 22.111 0 40.036 17.924 40.036 40.034h60.858c-.002-22.11-17.927-40.034-40.037-40.034z" style="fill:#f6f6f6"/><path d="M469.559 22.487h15.587v48.04h-15.587z" style="fill:#ff1d25" transform="rotate(-135 477.3548047 46.5078306)"/><path d="M441.067 67.017h16.013v15.587h-16.013z" style="fill:#fbb03b" transform="rotate(-135 449.075541 74.8121287)"/><path d="M369.394 61.062h15.587v171.23h-15.587z" style="fill:#ff1d25" transform="rotate(-135 377.1888144 146.6788644)"/><path d="M445.538-1.524h15.587v48.04h-15.587z" style="fill:#ff1d25" transform="rotate(-135 453.3338215 22.496488)"/><path d="M417.042 42.986h16.013v15.587h-16.013z" style="fill:#fbb03b" transform="rotate(-135 425.0501965 50.7802156)"/><path d="M345.366 37.044h15.587v171.23h-15.587z" style="fill:#ff1d25" transform="rotate(-135 353.1605154 122.6601837)"/><path d="M484.81 271.465c0 127.816-103.961 232.204-232.204 232.204S20.4 399.281 20.4 271.465h464.41z" style="fill:#c7b299"/><path d="M460.788 271.465c0 123.659-97.534 225.55-220.194 231.799 3.978.203 7.982.356 12.011.356 128.243 0 232.204-104.339 232.204-232.156h-24.021z" style="fill:#d2c1ad"/><path d="M40.418 271.465c0 127.816 97.534 225.55 220.194 231.799-3.978.203-7.982.356-12.011.356-128.243 0-232.204-104.339-232.204-232.156h24.021z" style="fill:#998675"/><path d="M20.4 272.304h464.409v32.028H20.4z" style="fill:#ff4a51"/><path d="M20.4 272.304h376.33v32.028H20.4z" style="fill:#ff1d25"/><path d="M20.4 272.304h96.08v32.028H20.4z" style="fill:#b20209"/><path d="M91.114 296.402h329.412v15.587H91.114z"/><path d="M244.909 320.303h15.587v15.587h-15.587zM221.009 320.303h16.626v15.587h-16.626zM267.771 320.303h16.626v15.587h-16.626z" style="fill:#fff"/><path d="M91.114 230.936h16.626v15.587H91.114zM117.093 216.387h15.587v15.587h-15.587zM140.994 239.249h15.587v15.587h-15.587zM163.855 216.387h16.626v15.587h-16.626zM188.795 183.135h15.587v15.587h-15.587zM237.635 183.135h14.548v15.587h-14.548zM188.795 239.249h15.587v15.587h-15.587zM228.283 216.387h16.626v15.587h-16.626zM277.123 224.701h16.626v15.587h-16.626zM293.75 239.249h14.548v15.587H293.75zM333.237 239.249h16.626v15.587h-16.626zM349.864 224.701h14.548v15.587h-14.548z"/><path d="M460.048 264.191c-3.43-23.029-23.333-40.753-47.302-40.753-1.718 0-3.45.098-5.146.291-7 .794-13.367-1.348-17.46-5.882-10.574-11.713-25.683-18.431-41.451-18.431-3.525 0-7.058.337-10.5 1.001-7.071 1.361-13.977-1.198-18.017-6.689-19.513-26.52-50.76-42.354-83.582-42.354-29.997 0-58.525 13.025-78.27 35.734-4.41 5.071-11.244 7.256-18.276 5.845-5.103-1.025-10.336-1.544-15.553-1.544-41.647 0-75.93 32.052-79.525 72.781H12.134v7.794c0 132.335 107.709 239.998 240.045 239.998S492.224 404.32 492.224 271.984v-7.794l-32.176.001zm-397.689-9.353H77.6v-15.587h-8.801c11.114-19.256 31.906-32.254 55.691-32.254 4.188 0 8.388.417 12.485 1.24 12.408 2.491 25.092-1.687 33.105-10.9 11.408-13.12 26.262-22.432 42.608-27.055v12.854h15.587v-15.587h-1.776c3.332-.386 6.698-.587 10.088-.587 18.674 0 36.294 5.715 50.958 16.174h-3.156v15.587h15.587v-4.825c2.711 2.825 5.266 5.846 7.638 9.069 7.641 10.382 20.488 15.268 33.523 12.756 2.473-.477 5.012-.718 7.549-.718 11.366 0 22.257 4.844 29.881 13.289 7.505 8.313 18.731 12.294 30.791 10.924 1.115-.127 2.254-.191 3.385-.191 5.858 0 11.351 1.578 16.089 4.32v11.493h11.638c1.703 2.863 2.971 6.01 3.723 9.352h-46.535v-8.313h-16.626v8.313H244.905v-8.313h-16.626v8.313H60.62c.352-3.194.936-6.317 1.739-9.354zm190.246 241.558c-110.091 0-201.913-79.682-220.832-184.403h45.828v-15.587H29.514c-.596-5.486-.994-11.031-1.187-16.626h448.554c-.192 5.596-.59 11.141-1.187 16.626h-46.86v15.587h44.601c-18.919 104.721-110.74 184.403-220.83 184.403z"/></svg>