<?xml version="1.0" encoding="iso-8859-1"?><svg xmlns="http://www.w3.org/2000/svg" xml:space="preserve" viewBox="0 0 512 512"><path d="M111.546 199.171h288.913v28.088H111.546zM111.546 399.81h288.913v24.075H111.546zM111.546 303.502h288.913v48.151H111.546z" style="fill:#f15a24"/><path d="M376.378 447.957h48.151c0 31.026-25.151 56.176-56.176 56.176H143.647c-31.026 0-56.176-25.151-56.176-56.176h226.424c8.39 0 15.191 6.801 15.191 15.191 0 7.996 5.463 15.406 13.355 16.69 10.056 1.636 18.746-6.083 18.746-15.831v-.859c-.001-8.389 6.801-15.191 15.191-15.191z" style="fill:#fbb03b"/><path d="M143.647 447.501H87.47c0 31.463 25.151 56.633 56.177 56.633h56.177c-31.027 0-56.177-25.17-56.177-56.633z" style="fill:#bc842c"/><path d="M368.353 447.501h56.177c0 31.463-25.151 56.633-56.177 56.633h-56.177c31.025 0 56.177-25.17 56.177-56.633z" style="fill:#fcc062"/><path d="M328.226 464.008c0 9.748 8.69 17.466 18.746 15.831 7.892-1.284 13.355-8.694 13.355-16.689 0-8.39 6.801-15.191 15.191-15.191h40.857V424.43l-320.881-.546v24.075h217.541c8.39 0 15.191 6.801 15.191 15.191v.858z" style="fill:#c1272d"/><path d="M416.503 303.504H304.15v16.05c0 4.432-3.593 8.025-8.025 8.025s-8.025 3.593-8.025 8.025-3.593 8.025-8.025 8.025h-8.025c-4.432 0-8.025-3.593-8.025-8.025s-3.593-8.025-8.025-8.025-8.025-3.593-8.025-8.025v-16.05H95.495v-17.099h321.009v17.099z" style="fill:#39b54a"/><path d="M304.15 351.655h88.278c13.296 0 24.075 10.779 24.075 24.075s-10.779 24.075-24.075 24.075H119.57c-13.296 0-24.075-10.779-24.075-24.075s10.779-24.075 24.075-24.075h128.403" style="fill:#754c24"/><path d="M392.428 352.064h-32.101c13.296 0 24.075 10.301 24.075 23.597s-10.779 23.597-24.075 23.597h32.101c13.296 0 24.075-10.301 24.075-23.597s-10.779-23.597-24.075-23.597z" style="fill:#806042"/><path d="M127.595 375.661c0-13.296 10.779-23.597 24.075-23.597h-32.1c-13.296 0-24.075 10.301-24.075 23.597s10.779 23.597 24.075 23.597h32.101c-13.297 0-24.076-10.301-24.076-23.597z" style="fill:#603813"/><path d="M207.671 224.114h180.744c15.512 0 27.96 11.894 27.96 27.407v.157c0 15.512-12.448 28.021-27.96 28.021H123.583c-15.512 0-28.129-12.599-28.129-28.111v.058c0-15.512 12.617-27.531 28.129-27.531h11.724" style="fill:#754c24"/><path d="M416.503 199.176H211.86c-11.08 0-20.063 8.983-20.063 20.063v16.05c0 11.08-8.983 20.063-20.063 20.063-11.08 0-20.063-8.983-20.063-20.063v-16.05c0-11.08-8.983-20.063-20.063-20.063H95.495V175.1h321.009v24.076z" style="fill:#f7931e"/><path d="M424.528 175.871c0-93.34-75.453-168.53-168.529-168.53S87.47 82.531 87.47 175.871h337.058z" style="fill:#fbb03b"/><path d="M432.107 184.261H79.722v-7.866c0-47.216 18.29-91.55 51.609-124.832C164.618 18.312 208.884 0 256.029 0s91.282 18.312 124.569 51.564c33.319 33.283 51.509 77.616 51.509 124.832v7.865zM95.522 168.53h320.954c-1.91-40.05-18.382-77.381-46.867-105.837C339.292 32.409 298.945 15.731 256 15.731s-83.293 16.678-113.61 46.962C113.904 91.148 97.433 128.48 95.522 168.53z" style="fill:#fddfb1"/><path d="M280.075 8.87C272.19 7.74 264.196 7.148 256 7.148c-93.076 0-168.53 75.382-168.53 168.722h48.151c0-84.949 62.814-155.289 144.454-167z" style="fill:#bc842c"/><path d="M127.595 251.907c0-15.512 12.576-27.792 28.088-27.792h-32.101c-15.512 0-28.088 12.28-28.088 27.792s12.576 27.792 28.088 27.792h32.101c-15.512 0-28.088-12.28-28.088-27.792z" style="fill:#603813"/><path d="M380.39 251.907c0-15.512-12.576-27.792-28.088-27.792h32.101c15.512 0 28.088 12.28 28.088 27.792s-12.576 27.792-28.088 27.792h-32.101c15.512 0 28.088-12.28 28.088-27.792z" style="fill:#806042"/><path d="M231.923 8.87c7.885-1.131 15.879-1.722 24.075-1.722 93.076 0 168.53 75.382 168.53 168.722h-48.151c.001-84.949-62.814-155.289-144.454-167z" style="fill:#fcc062"/><path d="M432.107 184.261H79.722v-7.866c0-47.216 18.29-91.55 51.609-124.832C164.618 18.312 208.884 0 256.029 0s91.282 18.312 124.569 51.564c33.319 33.283 51.509 77.616 51.509 124.832v7.865zM95.522 168.53h320.954c-1.91-40.05-18.382-77.381-46.867-105.837C339.292 32.409 298.945 15.731 256 15.731s-83.293 16.678-113.61 46.962C113.904 91.148 97.433 128.48 95.522 168.53z"/><path d="M432.107 184.261H79.722v-7.866c0-47.216 18.29-91.55 51.609-124.832C164.618 18.312 208.884 0 256.029 0s91.282 18.312 124.569 51.564c33.319 33.283 51.509 77.616 51.509 124.832v7.865zM95.522 168.53h320.954c-1.91-40.05-18.382-77.381-46.867-105.837C339.292 32.409 298.945 15.731 256 15.731s-83.293 16.678-113.61 46.962C113.904 91.148 97.433 128.48 95.522 168.53zM171.735 263.218c-15.4 0-27.929-12.529-27.929-27.929v-16.05c0-6.726-5.471-12.197-12.197-12.197H95.495V191.31h36.114c15.4 0 27.929 12.529 27.929 27.929v16.05c0 6.726 5.471 12.197 12.197 12.197 6.726 0 12.197-5.471 12.197-12.197v-16.05c0-15.4 12.529-27.929 27.929-27.929h204.643v15.731H211.86c-6.726 0-12.197 5.471-12.197 12.197v16.05c0 15.401-12.528 27.93-27.928 27.93z"/><path d="M119.58 134.965h15.731v15.731H119.58zM135.311 111.893h16.78v15.731h-16.78zM224.456 134.965h14.683v15.731h-14.683zM183.554 120.283h15.731v15.731h-15.731zM239.139 79.381h16.78v15.731h-16.78zM295.772 120.283h16.78v15.731h-16.78zM335.625 72.04h16.78v15.731h-16.78zM281.089 55.264h14.683v15.731h-14.683zM360.795 134.965h15.731v15.731h-15.731zM392.258 95.112h16.78v15.731h-16.78zM272.699 160.136h14.683v15.731h-14.683zM176.213 55.264h15.731v15.731h-15.731zM119.58 72.04h15.731v15.731H119.58zM191.944 79.381h15.731v15.731h-15.731zM224.456 23.801h14.683v15.731h-14.683z" style="fill:#fddfb1"/><path d="M280.075 351.495h-8.025c-8.762 0-15.891-7.128-15.891-15.891 0-.088-.071-.159-.159-.159-8.762 0-15.891-7.128-15.891-15.891v-8.185H95.495v-15.731H255.84v23.916c0 .088.071.159.159.159 8.762 0 15.891 7.128 15.891 15.891 0 .088.071.159.159.159h8.025c.087 0 .159-.071.159-.159 0-8.762 7.128-15.891 15.891-15.891.088 0 .159-.071.159-.159v-23.916h120.219v15.731H312.016v8.185c0 8.762-7.128 15.891-15.891 15.891-.088 0-.159.071-.159.159 0 8.763-7.129 15.891-15.891 15.891z"/><path d="M95.458 320.596h39.853v15.731H95.458zM143.701 320.596h39.853v15.731h-39.853zM191.944 320.596h39.853v15.731h-39.853zM328.283 320.596h39.853v15.731h-39.853zM376.527 320.596h39.853v15.731h-39.853z" style="fill:#8cc63f"/><path d="M368.353 512H143.647c-35.313 0-64.042-28.729-64.042-64.042v-7.866h234.29c12.714 0 23.057 10.344 23.057 23.057 0 4.389 2.966 8.31 6.752 8.926 2.482.403 4.87-.245 6.729-1.827 1.835-1.561 2.888-3.835 2.888-6.24v-.859c0-12.714 10.344-23.057 23.057-23.057h56.018v7.866C432.394 483.27 403.665 512 368.353 512zM95.976 455.823c3.767 22.91 23.709 40.444 47.671 40.444h224.706c23.961 0 43.903-17.534 47.671-40.444h-39.645c-4.04 0-7.326 3.287-7.326 7.326v.859c0 7.027-3.072 13.669-8.428 18.223-5.354 4.553-12.444 6.511-19.446 5.371-11.378-1.851-19.958-12.364-19.958-24.453 0-4.04-3.286-7.326-7.326-7.326H95.976zM95.458 417.083H416.38v15.731H95.458zM239.139 248.232h16.78v15.731h-16.78zM376.527 248.232h15.731v15.731h-15.731z"/><path d="M388.415 216.773H207.671v15.731h88.096v6.293h15.731v-6.293h76.916c11.34 0 19.57 7.998 19.57 19.017v.157c0 11.402-8.779 20.68-19.57 20.68h-37.063v-8.39H335.62v8.39H135.307v-8.39h-15.731v7.979c-9.419-1.926-16.766-10.449-16.78-20.329.017-10.719 9.142-19.113 20.788-19.113h11.724v-15.731h-11.724c-20.458 0-36.489 15.287-36.519 34.815v.057c.033 19.761 16.744 36.443 36.519 36.443h264.833c19.465 0 35.301-16.333 35.301-36.411v-.157c-.001-19.809-15.178-34.748-35.303-34.748zM119.58 368.84h15.731v15.731H119.58zM239.139 368.84h16.78v15.731h-16.78z"/><path d="M392.428 343.789H304.15v15.731h31.47v8.274h15.731v-8.274h41.076c8.938 0 16.21 7.272 16.21 16.21s-7.272 16.21-16.21 16.21h-1.223v-8.414h-15.731v8.414H190.891v-8.414H175.16v8.414h-55.589c-8.939 0-16.211-7.272-16.211-16.21 0-8.939 7.272-16.21 16.211-16.21h128.403v-15.731H119.571c-17.613 0-31.942 14.329-31.942 31.941s14.329 31.941 31.942 31.941h272.857c17.612 0 31.941-14.329 31.941-31.941s-14.329-31.941-31.941-31.941z"/></svg>