<?xml version="1.0" encoding="iso-8859-1"?><svg xmlns="http://www.w3.org/2000/svg" xml:space="preserve" viewBox="0 0 511.999 511.999"><path d="M144.399 159.796v-15.86c0-44.215 35.602-80.059 79.818-80.059 35.86 0 66.093 23.501 76.283 56l3.534 39.919H144.399z" style="fill:#9e005d"/><circle cx="272.013" cy="135.932" r="24.021" style="fill:#ff1d25"/><path d="M244.174 66.464c-6.444-1.672-12.972-2.587-19.94-2.587-44.214 0-79.836 35.843-79.836 80.059v15.86h39.619v-15.86c.001-37.344 25.571-68.623 60.157-77.472z" style="fill:#ff7bac"/><circle cx="320.045" cy="135.932" r="24.021" style="fill:#ff1d25"/><circle cx="368.077" cy="135.932" r="24.021" style="fill:#ff1d25"/><path d="M444.138 400.122H67.863c-11.054 0-20.015-8.961-20.015-20.015s8.961-20.015 20.015-20.015h376.274c11.054 0 20.015 8.961 20.015 20.015s-8.961 20.015-20.014 20.015z" style="fill:#fbb03b"/><path d="M444.138 361.017h-48.035c11.054 0 20.015 8.756 20.015 19.809 0 11.054-8.961 19.809-20.015 19.809h48.035c11.054 0 20.015-8.756 20.015-19.809s-8.962-19.809-20.015-19.809z" style="fill:#fcc062"/><path d="M71.866 361.017h48.035c-11.054 0-20.015 8.756-20.015 19.809 0 11.054 8.961 19.809 20.015 19.809H71.866c-11.054 0-20.015-8.756-20.015-19.809s8.961-19.809 20.015-19.809z" style="fill:#ae7418"/><path d="M444.138 360.093H67.863c-11.054 0-20.015-8.961-20.015-20.015s8.961-20.015 20.015-20.015h376.274c11.054 0 20.015 8.961 20.015 20.015 0 11.055-8.961 20.015-20.014 20.015z" style="fill:#fbb03b"/><path d="M444.138 320.356h-48.035c11.054 0 20.015 9.277 20.015 20.331s-8.961 20.331-20.015 20.331h48.035c11.054 0 20.015-9.277 20.015-20.331-.001-11.054-8.962-20.331-20.015-20.331z" style="fill:#fcc062"/><path d="M71.866 320.356h48.035c-11.054 0-20.015 9.277-20.015 20.331s8.961 20.331 20.015 20.331H71.866c-11.054 0-20.015-9.277-20.015-20.331s8.961-20.331 20.015-20.331z" style="fill:#ae7418"/><path d="M444.138 320.064H67.863c-11.054 0-20.015-8.961-20.015-20.015s8.961-20.015 20.015-20.015h376.274c11.054 0 20.015 8.961 20.015 20.015 0 11.055-8.961 20.015-20.014 20.015z" style="fill:#fbb03b"/><path d="M444.138 280.737h-48.035c11.054 0 20.015 8.756 20.015 19.809s-8.961 19.809-20.015 19.809h48.035c11.054 0 20.015-8.756 20.015-19.809-.001-11.053-8.962-19.809-20.015-19.809z" style="fill:#fcc062"/><path d="M71.866 280.737h48.035c-11.054 0-20.015 8.756-20.015 19.809s8.961 19.809 20.015 19.809H71.866c-11.054 0-20.015-8.756-20.015-19.809s8.961-19.809 20.015-19.809z" style="fill:#ae7418"/><path d="M444.138 280.035H67.863c-11.054 0-20.015-8.961-20.015-20.015s8.961-20.015 20.015-20.015h376.274c11.054 0 20.015 8.961 20.015 20.015s-8.961 20.015-20.014 20.015z" style="fill:#fbb03b"/><path d="M444.138 240.076h-48.035c11.054 0 20.015 9.277 20.015 20.331s-8.961 20.331-20.015 20.331h48.035c11.054 0 20.015-9.277 20.015-20.331-.001-11.054-8.962-20.331-20.015-20.331z" style="fill:#fcc062"/><path d="M71.866 240.076h48.035c-11.054 0-20.015 9.277-20.015 20.331s8.961 20.331 20.015 20.331H71.866c-11.054 0-20.015-9.277-20.015-20.331s8.961-20.331 20.015-20.331z" style="fill:#ae7418"/><path d="M444.138 240.006H67.863c-11.054 0-20.015-8.961-20.015-20.015s8.961-20.015 20.015-20.015h376.274c11.054 0 20.015 8.961 20.015 20.015s-8.961 20.015-20.014 20.015z" style="fill:#fbb03b"/><path d="M444.138 240.006H67.863c-11.054 0-20.015-8.961-20.015-20.015s8.961-20.015 20.015-20.015h376.274c11.054 0 20.015 8.961 20.015 20.015s-8.961 20.015-20.014 20.015z" style="fill:#fbb03b"/><path d="M444.138 200.457h-48.035c11.054 0 20.015 8.756 20.015 19.809 0 11.054-8.961 19.809-20.015 19.809h48.035c11.054 0 20.015-8.756 20.015-19.809s-8.962-19.809-20.015-19.809z" style="fill:#fcc062"/><path d="M71.866 200.457h48.035c-11.054 0-20.015 8.756-20.015 19.809 0 11.054 8.961 19.809 20.015 19.809H71.866c-11.054 0-20.015-8.756-20.015-19.809s8.961-19.809 20.015-19.809z" style="fill:#ae7418"/><path d="M456.146 448.158H55.855c-26.529 0-48.035-21.506-48.035-48.035h496.361c0 26.528-21.506 48.035-48.035 48.035z" style="fill:#bdccd4"/><path d="M440.134 400.635c0 26.065-21.506 47.959-48.035 47.959h64.047c26.529 0 48.035-21.894 48.035-47.959h-64.047z" style="fill:#cad6dd"/><path d="M71.866 400.635c0 22.937 21.506 47.959 48.035 47.959H55.855c-26.529 0-48.035-25.022-48.035-47.959h64.046z" style="fill:#8e999f"/><path d="M444.138 159.947H69.005c-10.469 0-20.009 7.533-21.052 17.949-1.2 11.98 8.176 22.079 19.91 22.079h56.04c15.475 0 28.021 12.546 28.021 28.021v22.431c0 15.173 11.361 28.772 26.513 29.567 16.159.847 29.527-12.007 29.527-27.981v-24.017c0-15.475 12.546-28.021 28.021-28.021h59.408c13.615 0 24.653 11.038 24.653 24.653v7.37c0 13.265 10.753 24.017 24.017 24.017 13.265 0 24.017-10.753 24.017-24.017v-7.37c0-13.615 11.038-24.653 24.653-24.653h50.261c10.47 0 20.009-7.534 21.052-17.95 1.201-11.979-8.174-22.078-19.908-22.078z" style="fill:#c27428"/><path d="M191.316 227.997v24.017c0 12.672-8.144 23.255-19.687 26.719 2.075.656 3.875 1.144 6.145 1.263 16.159.847 29.181-12.007 29.181-27.981v-24.017c0-15.475 13.556-27.54 29.031-27.54h-16.012c-15.476-.001-28.658 12.064-28.658 27.539zM351.875 224.63V232c0 10.443-6.607 19.238-15.914 22.547 2.516.895 4.948 1.471 7.77 1.471 13.265 0 23.783-10.753 23.783-24.017v-7.37c0-13.615 11.605-24.173 25.22-24.173h-16.012c-13.615-.001-24.847 10.556-24.847 24.172zM444.138 159.796h-16.012c11.734 0 21.11 10.414 19.911 22.395-1.043 10.418-10.582 18.266-21.052 18.266h16.012c10.47 0 20.009-7.85 21.052-18.266 1.198-11.981-8.177-22.395-19.911-22.395z" style="fill:#754c24"/><path d="M224.679 231.736h79.237v15.639h-79.237zM231.977 79.518h15.639v15.639h-15.639zM191.316 87.858h16.681v15.639h-16.681zM207.997 104.54h16.681v15.639h-16.681z"/><path d="M469.151 392.303c1.804-3.685 2.82-7.823 2.82-12.194 0-7.852-3.274-14.95-8.521-20.015 5.247-5.065 8.521-12.163 8.521-20.015s-3.274-14.949-8.52-20.014c5.247-5.065 8.52-12.163 8.52-20.015 0-7.724-3.207-14.714-8.364-19.736 5.617-5.184 9.196-12.501 9.209-20.469v.041h.022c-.014-8.341-3.544-15.223-9.133-20.381 5.098-4.953 8.329-11.868 8.398-19.463l.133-.004c0-7.98-3.524-15.181-8.959-20.254 4.717-4.427 7.889-10.362 8.552-16.978.786-7.853-1.783-15.694-7.049-21.514-5.269-5.823-12.794-9.162-20.643-9.162h-48.662c2.819-4.749 4.445-10.287 4.445-16.199 0-17.555-14.282-31.837-31.838-31.837-9.578 0-18.176 4.258-24.017 10.973-5.842-6.715-14.439-10.973-24.017-10.973-5.716 0-11.08 1.521-15.721 4.17-13.928-31.61-45.094-52.242-80.378-52.242-48.462 0-87.889 39.439-87.889 87.916v8.192H69.005c-14.764 0-27.43 10.976-28.833 24.99-.786 7.854 1.783 15.696 7.049 21.516.424.469.868.915 1.321 1.351-5.242 5.065-8.512 12.159-8.512 20.006 0 7.849 3.266 14.95 8.51 20.014-5.243 5.065-8.51 12.166-8.51 20.015 0 7.852 3.274 14.949 8.52 20.014-5.247 5.065-8.52 12.163-8.52 20.015s3.274 14.95 8.52 20.015c-5.247 5.065-8.52 12.162-8.52 20.014s3.274 14.95 8.521 20.015c-5.247 5.065-8.521 12.163-8.521 20.015 0 4.372 1.015 8.51 2.82 12.194H0v7.819c0 30.798 25.056 55.855 55.854 55.855h400.291c30.798 0 55.854-25.057 55.854-55.855v-7.819h-42.847v-.001zm-101.07-272.572c8.932 0 16.199 7.267 16.199 16.198 0 8.932-7.267 16.199-16.199 16.199-8.931 0-16.198-7.267-16.198-16.199.001-8.931 7.268-16.198 16.198-16.198zm-48.034 0c8.931 0 16.198 7.267 16.198 16.198 0 8.932-7.267 16.199-16.198 16.199s-16.198-7.267-16.198-16.199c0-8.931 7.266-16.198 16.198-16.198zm-31.837 16.198c0 8.932-7.267 16.199-16.198 16.199s-16.198-7.267-16.198-16.199c0-8.931 7.267-16.198 16.198-16.198 8.932 0 16.198 7.267 16.198 16.198zm-136.513 8.007c0-2.746.169-5.452.468-8.12h16.213v-15.639h-12.652c9.847-28.215 36.7-48.518 68.22-48.518 26.306 0 49.82 13.946 62.514 35.915-4.339-2.22-9.248-3.481-14.448-3.481-17.555 0-31.837 14.281-31.837 31.837 0 5.911 1.625 11.45 4.445 16.199h-29.325v-7.972h-15.639v7.972h-47.959v-8.193zm-95.964 34.741c.613-6.118 6.442-10.91 13.271-10.91h375.132c3.44 0 6.737 1.464 9.048 4.017 2.34 2.586 3.435 5.947 3.083 9.463-.612 6.118-6.441 10.911-13.271 10.911h-50.261c-17.906 0-32.473 14.567-32.473 32.473V232c0 8.931-7.267 16.198-16.198 16.198-8.931 0-16.198-7.267-16.198-16.198v-7.37c0-17.906-14.567-32.473-32.473-32.473h-59.408c-19.762 0-35.84 16.078-35.84 35.84v24.017c0 5.597-2.237 10.801-6.298 14.657-4.06 3.849-9.395 5.813-15 5.515-10.534-.552-19.103-10.313-19.103-21.758v-22.431c0-19.762-16.078-35.84-35.84-35.84h-56.04c-3.44 0-6.737-1.464-9.047-4.017-2.341-2.587-3.437-5.948-3.084-9.463zm-.065 121.372c0-6.725 5.47-12.195 12.195-12.195h76.055v-15.639H67.863c-6.725 0-12.195-5.47-12.195-12.194 0-6.725 5.47-12.195 12.195-12.195h68.05v-15.639h-68.05c-6.725 0-12.195-5.47-12.195-12.194 0-6.725 5.47-12.195 12.195-12.195h56.04c11.139 0 20.201 9.062 20.201 20.201v22.431c0 19.962 14.901 36.379 33.924 37.376.652.034 1.299.052 1.945.052 9.223-.001 17.909-3.454 24.638-9.84 7.101-6.738 11.172-16.215 11.172-26v-24.017c0-11.139 9.062-20.201 20.201-20.201h59.408c9.281 0 16.834 7.551 16.834 16.834v7.37c0 17.555 14.281 31.837 31.837 31.837 17.555 0 31.837-14.281 31.837-31.837v-7.37c0-9.281 7.552-16.834 16.834-16.834h50.261c.56 0 1.117-.021 1.67-.052v.143c6.256 0 11.794 5.314 11.927 11.897l-.216.004c0 6.7-5.377 11.947-12.241 11.947h-59.941v15.639h59.941c6.938 0 13.027 5.815 13.041 12.448-.014 6.583-6.223 12.575-13.041 12.575H216.338v15.639h227.798c6.839 0 12.195 5.278 12.195 12.014 0 6.725-5.471 12.195-12.195 12.195H67.863c-6.724-.004-12.195-5.474-12.195-12.2zm0 40.029c0-6.724 5.47-12.194 12.195-12.194h376.273c6.725 0 12.195 5.47 12.195 12.194 0 6.725-5.471 12.195-12.195 12.195H67.863c-6.724.001-12.195-5.47-12.195-12.195zm0 40.031c0-6.725 5.47-12.195 12.195-12.195h376.273c6.725 0 12.195 5.471 12.195 12.195s-5.471 12.194-12.195 12.194H67.863c-6.724 0-12.195-5.471-12.195-12.194zm400.478 60.229H55.854c-19.501 0-35.804-13.951-39.453-32.397H495.596c-3.646 18.446-19.949 32.397-39.45 32.397z"/></svg>