<?xml version="1.0" encoding="iso-8859-1"?><svg xmlns="http://www.w3.org/2000/svg" xml:space="preserve" viewBox="0 0 512 512"><path d="M143.938 35.887h56.035v48.025h-56.035z" style="fill:#8cc63f"/><path d="M143.938 59.896h56.035v24.012h-56.035z" style="fill:#d9e021"/><path d="M199.973 19.876h304.162V99.92H199.973z" style="fill:#8cc63f"/><path d="M377.247 63.336c-11.35-2.27-23.035-2.27-34.385 0l-5.636 1.127c-11.35 2.27-23.035 2.27-34.385 0l-5.636-1.127c-11.35-2.27-23.035-2.27-34.385 0l-5.636 1.127c-11.35 2.27-23.035 2.27-34.385 0l-22.828-4.566v40.021h304.16V59.897c-15.587 5.195-32.438 5.195-48.025 0" style="fill:#d9e021"/><path d="M376.063 19.876h80.044V99.92h-80.044z" style="fill:#fff"/><path d="M207.975 324.035V215.979c0-6.631 5.376-12.007 12.007-12.007h8.004c6.631 0 12.007-5.376 12.007-12.007 0-6.631 5.376-12.007 12.007-12.007h24.013c6.631 0 12.007 5.376 12.007 12.007 0 6.631 5.376 12.007 12.007 12.007 11.052 0 20.011 8.959 20.011 20.011v100.053M39.889 322.429l-22.725-22.725c-4.688-4.688-4.688-12.291 0-16.979l5.66-5.66c4.688-4.688 4.688-12.291 0-16.979-4.688-4.688-4.688-12.291 0-16.979l16.979-16.979c4.688-4.688 12.291-4.688 16.979 0 4.688 4.688 12.291 4.688 16.979 0 7.814-7.814 20.484-7.814 28.299 0l13.865 13.865s-35.316 57.651 20.011 84.044l-96.047-1.608zM480.116 322.429l22.725-22.725c4.688-4.688 4.688-12.291 0-16.979l-5.66-5.66c-4.688-4.688-4.688-12.291 0-16.979 4.688-4.688 4.688-12.291 0-16.979l-16.979-16.979c-4.688-4.688-12.291-4.688-16.979 0-4.688 4.688-12.291 4.688-16.979 0-7.814-7.814-20.484-7.814-28.299 0l-13.865 13.865s35.316 57.651-20.011 84.044l96.047-1.608z" style="fill:#39b54a"/><path d="M57.277 277.384h32.016V309.4H57.277z" style="fill:#f15a24" transform="rotate(-135 73.2844634 293.3934485)"/><path d="M254.62 277.374h32.016v32.016H254.62z" style="fill:#f15a24" transform="rotate(-135 270.6290576 293.3836292)"/><path d="M430.727 277.379h32.016v32.016h-32.016z" style="fill:#f15a24" transform="rotate(-135 446.7362314 293.3897902)"/><path d="M339.186 324.037c-16.273-9.804-27.157-27.645-27.157-48.027 0-30.944 25.086-56.03 56.03-56.03s56.03 25.086 56.03 56.03c0 20.382-10.884 38.223-27.157 48.027" style="fill:#ff1d25"/><circle cx="368.057" cy="276.008" r="32.016" style="fill:#ff4a51"/><circle cx="368.057" cy="276.008" r="16.009" style="fill:#ff777c"/><path d="M131.077 324.037c-16.273-9.804-27.157-27.645-27.157-48.027 0-30.944 25.086-56.03 56.03-56.03s56.03 25.086 56.03 56.03c0 20.382-10.884 38.223-27.157 48.027" style="fill:#ff1d25"/><path d="M131.077 324.037c-16.273-9.804-27.157-27.645-27.157-48.027 0-30.944 25.086-56.03 56.03-56.03s56.03 25.086 56.03 56.03c0 20.382-10.884 38.223-27.157 48.027" style="fill:#ff1d25"/><circle cx="159.951" cy="276.008" r="32.016" style="fill:#ff4a51"/><path d="M336.042 492.124H175.958c-92.832 0-168.088-75.256-168.088-168.089h496.26c0 92.833-75.256 168.089-168.088 168.089z" style="fill:#d4145a"/><path d="M456.105 325.018c0 92.342-75.256 166.845-168.088 166.845h48.025c92.832 0 168.088-74.503 168.088-166.845h-48.025z" style="fill:#dd437b"/><path d="M55.895 325.018c0 95.49 75.256 166.845 168.088 166.845h-48.025c-92.832 0-168.088-71.355-168.088-166.845h48.025z" style="fill:#9f0f44"/><path d="M15.877 356.052h480.252v24.012H15.877z" style="fill:#fff"/><path d="M152.69 235.829h15.74v16.789h-15.74zM138.4935292 262.6833764l-10.2899424-12.262128 12.05684-10.117672 10.2899424 12.262128zM134.9234131 279.589226l-15.7656632-2.7807633 2.734038-15.500752 15.7656632 2.7807633zM129.229996 302.832974l-7.87-13.63084 13.862062-8.0035 7.87 13.63084zM153.6687083 316.3093859l-14.790878-5.38308 5.474736-15.0427176 14.790878 5.38308zM166.2374494 316.3054636l-5.474736-15.0427176 14.790878-5.38308 5.474736 15.0427176zM190.667812 302.838462l-13.862062-8.0035 7.87-13.63084 13.862062 8.0035zM184.9646814 279.6030174l-2.734038-15.500752 15.7656632-2.7807633 2.734038 15.500752zM181.401168 262.6673328l-12.05684-10.117672 10.2899424-12.262128 12.05684 10.117672zM359.41 235.829h15.74v16.789h-15.74zM346.6128764 262.6700908l-10.2899424-12.262128 12.05684-10.117672 10.2899424 12.262128zM343.0375355 279.5978458l-15.7656632-2.7807633 2.734038-15.500752 15.7656632 2.7807633zM337.34246 302.841514l-7.87-13.63084 13.862928-8.004 7.87 13.63084zM361.7857671 316.3025315l-14.790878-5.38308 5.474736-15.0427176 14.790878 5.38308zM374.3387074 316.3041539l-5.474736-15.0427176 14.790878-5.38308 5.474736 15.0427176zM398.782518 302.846166l-13.862928-8.004 7.87-13.63084 13.862928 8.004zM393.0676926 279.5975667l-2.734038-15.500752 15.7656632-2.7807633 2.734038 15.500752zM389.5118716 262.677734l-12.05684-10.117672 10.2899424-12.262128 12.05684 10.117672zM47.751 244.223h15.74v15.74h-15.74zM455.949 244.223h15.74v15.74h-15.74zM255.525 220.088h16.789v15.74h-16.789zM232.44 252.618h15.74v15.74h-15.74z"/><path d="M47.751 100.463h15.74v15.74h-15.74zM63.496 123.549h15.74v32.53h-15.74zM23.616 163.424h15.74v24.135h-15.74zM87.631 180.213h15.74v15.74h-15.74z" style="fill:#d9e021"/><path d="m493.506 316.166 10.897-10.896c7.749-7.749 7.749-20.359 0-28.11l-5.66-5.659c-.782-.782-1.211-1.82-1.211-2.924s.43-2.144 1.211-2.926c7.75-7.749 7.75-20.359 0-28.11l-16.979-16.979c-3.755-3.755-8.745-5.822-14.055-5.822s-10.3 2.067-14.055 5.822c-1.613 1.613-4.237 1.613-5.85 0-10.87-10.87-28.558-10.87-39.429 0l-3.366 3.366c-10.441-7.429-23.189-11.817-36.95-11.817-15.202 0-29.174 5.344-40.155 14.243v-2.37c0-15.373-12.507-27.88-27.881-27.88-2.28 0-4.135-1.856-4.135-4.137 0-10.96-8.916-19.877-19.877-19.877h-24.012c-10.96 0-19.877 8.916-19.877 19.877 0 2.28-1.856 4.137-4.137 4.137h-8.004c-10.959 0-19.876 8.916-19.876 19.876v10.375c-10.981-8.897-24.953-14.243-40.155-14.243-16.824 0-32.139 6.546-43.562 17.211l-8.76-8.761c-5.267-5.267-12.267-8.166-19.715-8.166s-14.448 2.9-19.715 8.166c-1.612 1.614-4.236 1.614-5.85 0-7.749-7.748-20.359-7.749-28.11 0l-16.979 16.979c-7.75 7.749-7.75 20.359 0 28.11.782.782 1.211 1.82 1.211 2.926 0 1.105-.43 2.143-1.211 2.924l-5.66 5.66c-7.749 7.749-7.749 20.359 0 28.11l10.897 10.895H0v7.87c0 97.023 78.935 175.958 175.958 175.958h160.084c97.023 0 175.958-78.935 175.958-175.958v-7.87h-18.494zm-56.831-84.475c3.755 3.755 8.745 5.822 14.055 5.822s10.3-2.067 14.055-5.822c1.613-1.613 4.236-1.613 5.849 0l16.979 16.979c1.613 1.613 1.613 4.237 0 5.85-3.755 3.755-5.822 8.745-5.822 14.055 0 5.309 2.067 10.3 5.822 14.055l5.66 5.659c1.613 1.613 1.613 4.237 0 5.85l-22.027 22.027h-13.524l22.774-22.774-33.769-33.769-14.809 14.809c-.371-15.19-6.061-29.075-15.285-39.87l2.872-2.872c4.734-4.733 12.436-4.733 17.17.001zm-.943 84.475h-17.899c2.729-3.366 5.096-6.993 7.072-10.827l10.827 10.827zm-.514-22.774 11.509-11.509 11.509 11.509-11.509 11.509-11.509-11.509zm-67.159-65.542c12.85 0 24.533 5.069 33.177 13.3l1.682 1.682c8.231 8.644 13.3 20.327 13.3 33.177 0 6.054-1.121 11.895-3.195 17.317l-.064.064.029.029c-3.535 9.182-9.863 17.121-18.37 22.743H341.5c-13.555-8.959-21.601-23.807-21.601-40.155 0-26.552 21.605-48.157 48.16-48.157zm-55.874 16.143h.61c-.205.352-.411.702-.61 1.059v-1.059zm-92.204-32.15h8.004c10.96 0 19.877-8.916 19.877-19.877 0-2.28 1.856-4.137 4.137-4.137h24.012c2.28 0 4.136 1.856 4.136 4.137 0 10.96 8.916 19.877 19.876 19.877 6.694 0 12.141 5.446 12.141 12.14v11.841h-16.767v15.74h13.634c-3.132 7.535-4.87 15.79-4.87 24.447 0 14.966 5.075 28.992 14.125 40.155h-36.654l22.774-22.774-33.769-33.769-33.769 33.769 22.774 22.774h-49.915c9.051-11.163 14.125-25.189 14.125-40.155 0-11.211-2.912-21.752-8.004-30.921v-9.266h7.146v-15.74h-7.146v-4.105c-.003-2.281 1.853-4.136 4.133-4.136zm50.655 93.058-11.509-11.509 11.509-11.509 11.509 11.509-11.509 11.509zM159.95 227.85c26.556 0 48.16 21.604 48.16 48.16 0 16.348-8.045 31.196-21.601 40.155H133.39c-13.555-8.959-21.601-23.807-21.601-40.155.002-26.555 21.605-48.16 48.161-48.16zm-59.353 71.99c2.352 5.891 5.575 11.387 9.577 16.325H84.273l16.324-16.325zm-27.319 5.061-11.509-11.509 11.509-11.509 11.509 11.509-11.509 11.509zm-50.549-10.762c-1.613-1.613-1.613-4.237 0-5.849l5.66-5.66c3.755-3.755 5.822-8.745 5.822-14.055s-2.067-10.3-5.822-14.055c-1.613-1.613-1.613-4.237 0-5.85l16.979-16.979c1.613-1.612 4.237-1.613 5.85 0 3.755 3.755 8.745 5.822 14.055 5.822s10.3-2.067 14.055-5.822c2.294-2.293 5.342-3.556 8.585-3.556s6.292 1.263 8.585 3.556l9.753 9.753c-6.442 9.973-10.2 21.836-10.2 34.566 0 2.27.122 4.517.352 6.737l-23.124-23.124-33.77 33.769 22.774 22.775H44.755l-22.026-22.028zm473.34 37.767c-.265 5.475-.813 10.879-1.618 16.198H17.549c-.805-5.319-1.353-10.722-1.618-16.198h480.138zM20.754 363.844h470.492c-.726 2.829-1.529 5.628-2.404 8.395H23.158c-.875-2.767-1.678-5.566-2.404-8.395zm315.288 120.41H175.958c-65.629 0-122.167-39.661-146.904-96.275h453.892c-24.736 56.613-81.275 96.275-146.904 96.275z"/><circle cx="159.951" cy="276.008" r="16.009" style="fill:#ff777c"/><path d="M192.101 12.006v95.782H512V12.006H192.101zM496.26 54.165c-12.765 3.396-25.102 1.549-31.92-.068V27.746h31.92v26.419zM408.725 67.93v24.118H384.59V27.746h64.01v64.302h-24.135V67.93h-15.74zM368.85 27.746v26.43c-9.179-.855-18.402-.383-27.531 1.443l-5.636 1.127c-10.384 2.078-20.914 2.077-31.299 0l-5.636-1.127c-12.432-2.486-25.039-2.486-37.471 0l-5.636 1.127c-10.384 2.078-20.914 2.077-31.299 0l-16.502-3.3v-25.7h161.01zM207.841 69.497l13.415 2.683c12.433 2.486 25.04 2.486 37.471 0l5.636-1.127c10.384-2.077 20.914-2.077 31.299 0l5.636 1.127c6.216 1.243 12.477 1.865 18.736 1.865s12.52-.621 18.735-1.865l5.636-1.127c8.106-1.621 16.299-1.959 24.444-1.049v22.044H207.841V69.497zM464.34 92.048V70.213c4.567.886 10.284 1.625 16.661 1.625 4.785 0 9.944-.429 15.258-1.511v21.72H464.34zM151.636 19.66h-15.74v32.53H76.697L58.044 70.443l11.01 11.25L83.117 67.93h52.779v32.529h15.74v-8.394h31.48V76.324h-31.48V43.795h31.48v-15.74h-31.48z"/></svg>