<?xml version="1.0" encoding="iso-8859-1"?><svg xmlns="http://www.w3.org/2000/svg" xml:space="preserve" viewBox="0 0 512 512"><path d="M335.762 7.391v288.775c0 13.268-10.813 23.979-24.082 23.979h-.057l.525-272.256" style="fill:#8cc63f"/><path d="M332.933 320.19h-20.876V216.084h24.024v100.958c0 1.739-1.409 3.148-3.148 3.148z" style="fill:#c7b299"/><path d="M295.881 408.304H119.86c0 53.525 43.025 96.087 96.099 96.087s96.019-43.018 96.019-96.092" style="fill:#bdccd4"/><path d="M295.881 408.304H119.86c0 53.525 43.025 96.087 96.099 96.087s96.019-43.018 96.019-96.092" style="fill:#bdccd4"/><path d="M296.04 408.304h-16.017c0 47.228-34.65 87.006-80.082 94.646 5.219.877 10.547 1.447 16.017 1.447 53.074 0 96.099-42.567 96.099-96.092H296.04v-.001z" style="fill:#cad6dd"/><path d="M119.864 408.281h192.197v24.024H119.864z" style="fill:#6b7e87"/><path d="M304.277 335.888v72.393c0 5.384-.514 10.647-1.447 15.766H159.444v15.743H298.4c-12.744 32.988-44.861 56.468-82.396 56.468-23.604 0-45.768-9.161-62.409-25.798-14.822-14.817-23.725-34.044-25.524-54.809h167.811v-15.743H112.217v7.871c0 27.953 10.709 54.166 30.362 73.813C162.194 501.202 188.198 512 216.006 512c57.354 0 104.015-46.528 104.015-103.719v-72.393h-15.744z"/><path d="M119.56 424.045h24.139v15.743H119.56zM352.03 0c-26.331 0-47.753 21.493-47.753 47.911v184.075h-8.396v15.743h8.396v8.396h-8.396v15.743h8.396v8.396h-8.396v15.743h8.396v24.664l.058 7.871h7.871c17.618 0 31.952-14.523 31.952-32.375V31.529h-15.743v176.318h-8.396V47.911c0-17.738 14.36-32.169 32.01-32.169s32.01 14.431 32.01 32.169v31.896h15.743V47.911C399.783 21.493 378.361 0 352.03 0zm-23.614 223.59v72.576c0 6.125-3.426 11.604-8.396 14.488V223.59h8.396z"/></svg>