<?xml version="1.0" encoding="iso-8859-1"?><svg xmlns="http://www.w3.org/2000/svg" xml:space="preserve" viewBox="0 0 512 512"><path d="m135.922 183.954 10.933-46.273c2.128-7.45 11.781-9.388 16.621-3.339l20.476 25.595-16.011 72.047-32.019-48.03z" style="fill:#006837"/><path d="m376.076 183.954-10.933-46.273c-2.128-7.45-11.781-9.388-16.621-3.339l-20.476 25.595 16.011 72.047 32.019-48.03z" style="fill:#8cc63f"/><path d="m256 408.098 132.169-249.029c3.032-5.885 11.924-3.729 11.924 2.89v206.112c0 75.159-60.928 136.087-136.087 136.087" style="fill:#009245"/><path d="m388.321 159.069-12.105 22.782v186.22c0 67.014-48.55 122.585-112.326 133.871l.233 2.216c75.159 0 136.136-60.928 136.136-136.088V161.959c0-6.619-8.907-8.775-11.938-2.89z" style="fill:#8cc63f"/><path d="M256 408.098 123.831 159.069c-3.032-5.885-11.924-3.729-11.924 2.89v206.112c0 75.159 60.928 136.087 136.087 136.087" style="fill:#009245"/><path d="m123.678 159.069 12.105 22.782v186.22c0 67.014 48.55 122.585 112.326 133.871l-.233 2.216c-75.159 0-136.136-60.928-136.136-136.088V161.959c.001-6.619 8.907-8.775 11.938-2.89z" style="fill:#006837"/><path d="M169.5 247.992c5.235-71.322 23.612-141.191 54.331-206.041l9.304-19.642c4.186-8.835 13.088-14.469 22.864-14.469 9.776 0 18.678 5.633 22.863 14.469l9.304 19.64c30.72 64.851 49.097 134.721 54.332 206.044l-86.499 152.1L169.5 247.992z" style="fill:#fbb03b"/><path d="m207.968 320.041-32.02-56.036v-72.046l32.02-112.072z" style="fill:#f7931e"/><path d="M233.542 47.866c9.776 0 18.678 5.633 22.863 14.469l9.304 19.64c30.654 64.711 49.007 134.421 54.288 205.585l22.502-39.568c-5.235-71.323-23.613-141.193-54.333-206.044l-9.304-19.64c-4.185-8.834-13.087-14.468-22.863-14.468-9.777 0-18.678 5.633-22.863 14.469l-9.304 19.642c-1.635 3.452-3.093 6.974-4.658 10.454 4.15-2.873 9.117-4.539 14.368-4.539z" style="fill:#fcc062"/><path d="M199.547 248.679h16.726v15.68h-16.726zM223.59 271.677h16.726v15.68H223.59zM271.676 271.677h16.726v15.68h-16.726zM247.633 295.72h16.726v15.68h-16.726zM247.633 343.806h16.726v15.68h-16.726zM223.59 231.953h16.726v15.68H223.59zM199.547 207.91h16.726v15.68h-16.726zM247.633 207.91h16.726v15.68h-16.726zM295.719 207.91h16.726v15.68h-16.726zM199.547 159.824h16.726v15.68h-16.726zM247.633 159.824h16.726v15.68h-16.726zM295.719 159.824h16.726v15.68h-16.726zM247.633 111.738h16.726v15.68h-16.726zM247.633 63.656h16.726v15.68h-16.726zM247.633 248.679h16.726v15.68h-16.726zM271.676 231.953h16.726v15.68h-16.726zM271.676 183.867h16.726v15.68h-16.726zM223.59 183.867h16.726v15.68H223.59zM271.676 135.781h16.726v15.68h-16.726zM223.59 135.781h16.726v15.68H223.59zM271.676 87.695h16.726v15.68h-16.726zM223.59 87.695h16.726v15.68H223.59zM295.719 248.679h16.726v15.68h-16.726zM159.823 424.298h32.406v15.68h-32.406zM183.866 367.849h24.043v15.68h-24.043zM135.78 312.445h32.406v15.68H135.78zM304.082 400.255h24.043v15.68h-24.043z"/><path d="M397.115 148.206c-6.469-1.568-12.867 1.355-15.873 7.188l-2.67 5.03-5.801-24.546-.091-.351c-1.795-6.278-6.887-10.978-13.289-12.264-6.398-1.286-12.914 1.083-16.993 6.182l-9.644 12.056c-9.226-35.253-21.746-69.64-37.504-102.908l-9.303-19.641C280.494 7.439 268.738 0 255.999 0s-24.495 7.439-29.948 18.952l-9.304 19.642c-15.758 33.266-28.278 67.653-37.503 102.906l-9.644-12.055c-4.08-5.099-10.589-7.47-16.993-6.182-6.402 1.286-11.494 5.986-13.289 12.264l-5.888 24.903-2.628-4.952c-3.049-5.92-9.445-8.839-15.917-7.273-6.471 1.569-10.818 7.097-10.818 13.754v206.112c0 79.362 64.566 143.928 143.928 143.928h15.845v-4.592l.165-.165V512c79.362 0 143.928-64.566 143.928-143.928V161.96c-.001-6.658-4.347-12.185-10.818-13.754zm-42.47-8.966c.429-.536.989-.739 1.661-.604.635.128 1.06.493 1.264 1.088l9.856 41.705-19.896 37.488c-2.393-19.606-5.755-39.012-10.082-58.178l17.197-21.499zm-138.368-11.818v-15.68h-11.912c6.293-19.129 13.614-37.96 21.947-56.449h14.008v-15.68h-6.705l6.607-13.947c1.601-3.382 4.236-6.092 7.416-7.833V31.25h16.726V17.833c3.179 1.741 5.813 4.451 7.415 7.832l6.607 13.947h-6.703v15.68h14.006c8.334 18.489 15.655 37.32 21.947 56.449h-11.911v15.68h16.726v-.306c5.559 18.664 10.144 37.598 13.766 56.756h-6.449v15.68h9.189c1.722 10.738 3.145 21.541 4.259 32.406h-13.447v15.68h12.519l-25.521 48.086h-11.042v15.68h2.72l-10.037 18.911v-10.549h-16.726v15.68h14.003l-29.683 55.926-29.683-55.926h14.002v-15.68h-16.726v10.55l-10.037-18.913h2.72v-15.68h-11.042l-25.521-48.086h12.52v-15.68h-13.446c1.113-10.865 2.537-21.668 4.259-32.406h9.189v-15.68h-6.45c3.622-19.159 8.207-38.094 13.767-56.758v.309l16.723.001zm-61.848 12.302c.204-.595.629-.961 1.264-1.088.672-.135 1.232.068 1.661.604l17.198 21.499c-4.328 19.168-7.69 38.575-10.082 58.18l-19.896-37.488 9.855-41.707zM132.75 424.302h27.078v-15.68H126.32c-4.261-12.75-6.574-26.385-6.574-40.549V343.81h16.038v-15.68h-16.038v-87.81h16.038v-15.68h-16.038v-56.542l41.956 79.054c-.006.089-.015.178-.021.268l.169.013 4.548 8.57h-6.573v15.68h14.895l73.437 138.369v75.183l-26.641-26.642-11.088 11.087 26.125 26.126c-45.664-4.058-84.522-32.146-103.803-71.504zm223.857 32.406h-28.479v15.68h10.396c-18.099 12.967-39.698 21.34-63.081 23.416l26.125-26.126-11.088-11.087-26.641 26.642v-75.182l14.074-26.516h41.853v-15.68h-33.531l42.719-80.492h31.58v-15.68h-23.258l12.869-24.249.17-.013c-.006-.09-.015-.179-.021-.269l41.956-79.055V256h-24.401v15.68h24.401v64.812h-24.401v15.68h24.401v15.9c.002 34.352-13.575 65.59-35.643 88.636z"/></svg>