<?xml version="1.0" encoding="iso-8859-1"?><svg xmlns="http://www.w3.org/2000/svg" xml:space="preserve" viewBox="0 0 512 512"><path d="M416.088 504.124H95.93V264.006c0-22.102 17.917-40.021 40.021-40.021 22.102 0 40.021-17.918 40.021-40.021l-.001-88.043h160.08v88.044c0 22.102 17.917 40.02 40.02 40.02 22.102 0 40.02 17.917 40.02 40.02v240.119h-.003z" style="fill:#998675"/><path d="M183.968 360.057h144.069V448.1H183.968z" style="fill:#bdccd4"/><path d="M175.973 95.924h160.079v24.012H175.973z" style="fill:#7fcdee"/><path d="M175.973 95.924h64.029v24.012h-64.029z" style="fill:#29abe2"/><path d="M327.875 392.915h23.081v47.211h-23.081" style="fill:#fff"/><path d="M175.973 336.042h160.079v24.012H175.973zM183.968 424.087h144.069v24.012H183.968z" style="fill:#29abe2"/><path d="M416.088 504.124h-48.024V223.985h8.724c21.705 0 39.3 17.595 39.3 39.3v240.839z" style="fill:#ad9e91"/><path d="M95.93 504.124h48.024V223.985H133.23c-20.6 0-37.3 16.7-37.3 37.3v242.839z" style="fill:#736558"/><path d="M95.934 480.111h320.157v24.012H95.934z" style="fill:#7fcdee"/><path d="M95.934 480.111h272.138v24.012H95.934z" style="fill:#29abe2"/><path d="M95.934 480.111h48.024v24.012H95.934z" style="fill:#0c6d95"/><path d="M343.916 367.922H168.1v-39.75h175.816v39.75zm-160.078-15.737h144.341v-8.276H183.838v8.276zM208.276 415.998h95.472v15.737h-95.472zM127.492 471.603h16.786v15.737h-16.786zM152.672 471.603h14.688v15.737h-14.688zM175.753 471.603h15.737v15.737h-15.737zM199.883 471.603h16.786v15.737h-16.786zM225.063 471.603h14.688v15.737h-14.688zM248.144 471.603h15.737v15.737h-15.737zM272.274 471.603h14.688v15.737h-14.688zM295.356 471.603h16.786v15.737h-16.786zM320.535 471.603h15.737v15.737h-15.737zM344.665 471.603h14.688v15.737h-14.688zM367.747 471.603h16.786v15.737h-16.786zM199.883 111.746h16.786v15.737h-16.786zM225.063 111.746h14.688v15.737h-14.688zM248.144 111.746h15.737v15.737h-15.737zM272.274 111.746h14.688v15.737h-14.688zM295.356 111.746h16.786v15.737h-16.786z"/><path d="M431.745 8.927h25.18v15.737h-25.18zM55.101 7.878h25.18v15.737h-25.18z" style="fill:#29abe2"/><path d="M335.219 376.128h-15.737v39.868h-7.344v15.737h7.344v9.442H191.486v-9.442h8.393v-15.737h-8.393v-39.868h-15.737v80.784h159.47v-8.393H358.3V385.57h-23.081v-9.442zm7.344 25.18v31.474h-7.344v-31.474h7.344z"/><path d="M432.096 71.876h-8.004c-13.306 0-23.995-10.851-23.995-24.19s10.66-24.19 24.299-24.19V7.758c-22.032 0-40.036 17.911-40.036 39.927s17.749 39.927 39.732 39.927h8.004c35.382 0 64.167 28.945 64.167 64.522s-28.785 64.522-64.167 64.522l-56.028-.541c-17.727 0-32.151-14.423-32.151-32.152l-.001-95.913c0-48.473-38.79-88.043-87.383-88.043-48.594 0-88.433 39.571-88.433 88.043v95.912c0 8.588-3.345 16.663-9.417 22.735-6.072 6.074-14.147 9.418-22.735 9.418-.023 0-.045.002-.068.002v-.002l-55.994.541c-35.382 0-64.133-28.945-64.133-64.522s28.785-64.522 64.168-64.522h8.004c21.983 0 39.732-17.911 39.732-39.927S109.653 7.759 87.62 7.759v15.737c13.639 0 24.299 10.851 24.299 24.19S101.23 71.875 87.925 71.875h-8.004C35.862 71.876 0 107.881 0 152.136s35.828 80.26 79.887 80.26l20.303-.196c-7.538 8.464-12.13 19.606-12.13 31.806v247.987h335.897V264.005c0-12.198-4.592-23.34-12.129-31.805l20.268.196c44.059 0 79.904-36.004 79.904-80.26s-35.845-80.26-79.904-80.26zM184.142 87.917c0-39.795 32.474-72.171 72.391-72.171 39.917 0 72.391 32.376 72.391 72.171v.135H184.142v-.135zm-80.344 408.338v-8.918h15.298V471.6h-15.298V264.006c0-17.728 14.424-32.152 32.152-32.152 12.791 0 24.818-4.981 33.862-14.027 9.046-9.045 14.027-21.071 14.026-33.862v-56.484h7.648v-15.737h-7.648v-7.954H328.18v7.954h-7.648v15.737h7.648l.001 56.485c0 26.406 21.482 47.889 47.888 47.889 17.728 0 32.152 14.423 32.152 32.151v207.596h-15.298v15.737h15.298v8.918H103.798v-.002z"/></svg>