<?xml version="1.0" encoding="iso-8859-1"?><svg xmlns="http://www.w3.org/2000/svg" xml:space="preserve" viewBox="0 0 512 512"><path d="M200.576 428.137c26.517 0 48.013-22.022 48.013-48.238h-56.014c-26.517 0-48.013 21.721-48.013 48.238s21.496 48.238 48.013 48.238h56.015c-.001-26.216-21.497-48.238-48.014-48.238z" style="fill:#f15a24"/><path d="M168.568 428.137c0-26.517 21.496-48.238 48.013-48.238h-24.006c-26.517 0-48.013 21.721-48.013 48.238s21.496 48.238 48.013 48.238h24.007c-26.518 0-48.014-21.722-48.014-48.238z" style="fill:#f7931e"/><path d="M511.999 155.972H147.927c-76.584 0-141.563 62.674-140.036 139.243 1.473 73.858 61.802 132.83 136.009 132.83-41.362 0-74.58-34.868-71.864-76.814 2.478-38.279 35.972-67.226 74.331-67.226h189.585c22.097 0 40.01-17.913 40.01-40.01h8.002" style="fill:#f15a24"/><path d="M74.08 373.725c-29.973-24.281-49.36-61.047-50.186-102.516-.461-23.105 5.219-44.898 15.361-64.133-20.051 24.053-32.029 54.771-31.363 88.138 1.472 73.86 61.801 132.832 136.008 132.832-33.668.001-61.931-23.104-69.82-54.321zM351.955 259.304H162.37c-30.893 0-58.601 19.373-69.523 46.678 13.746-13.678 32.904-21.51 53.519-21.51H335.95c19.124 0 35.063-14.019 39.019-31.954-6.516 4.604-14.426 6.786-23.014 6.786z" style="fill:#f7931e"/><path d="M71.973 356.392c-9.81-18.279-15.629-38.751-16.071-60.895-1.527-76.57 63.452-138.962 140.036-138.962h-48.012c-76.584 0-141.563 62.393-140.036 138.962 1.474 73.859 61.803 132.689 136.01 132.689-39.647.001-71.719-32.197-71.927-71.794zM271.937 155.977h16.005v88.024h-16.005zM199.915 155.977h16.005v88.024h-16.005z" style="fill:#f7931e"/><path d="m135.897 243.996-16.004 8.003-24.006-83.203 16.004-4.821z" style="fill:#f7931e"/><path d="M327.704 190.089h16.778v15.73h-16.778zM399.013 172.262h105.914v15.73H399.013zM384.331 197.43h95.427v15.73h-95.427zM437.199 237.282h17.392v-15.73h-95.427v15.73h40.534c24.854 2.407 43.418 23.036 43.418 48.05 0 26.702-21.453 48.426-48.003 48.426h-24.007c-17.574 0-32.075 14.174-32.075 31.596 0 17.421 14.889 31.595 31.667 31.595v-15.73c-8.389 0-15.937-6.969-15.937-15.865s7.293-15.866 16.345-15.866h24.007c35.224 0 63.733-28.78 63.733-64.156 0-19.127-8.341-36.309-21.647-48.05zM143.141 243.571h32.508v15.73h-32.508z"/><path d="M279.466 266.644V163.837H512v-15.73h-73.189c.423-.41.849-.813 1.262-1.237 10.613-10.937 16.207-25.365 15.75-40.624-.897-29.867-26.854-54.165-57.866-54.165h-74.008c-2.282 0-4.138-1.857-4.138-4.138 0-2.281 1.857-4.138 4.138-4.138h20.005v-15.73h-20.005c-10.955 0-19.868 8.913-19.868 19.868s8.913 19.868 19.868 19.868h74.008c22.593 0 41.498 17.454 42.142 38.907.329 10.97-3.689 21.34-11.314 29.198-7.629 7.862-17.863 12.192-28.816 12.192H147.926c-39.747 0-78.633 16.414-106.688 45.033C13.905 221.026-.731 257.332.028 295.373c.754 37.803 16.058 73.168 43.097 99.581 25.319 24.734 58.314 39.06 93.571 40.78v.176h.564c3.835 27.099 27.172 48.014 55.313 48.014h63.881v-7.865c0-20.389-10.982-38.254-27.335-48.014 16.354-9.759 27.335-27.625 27.335-48.013v-7.865h-63.881c-28.026 0-51.28 20.746-55.259 47.683-15.386-1.545-29.484-8.494-40.232-19.961-12.255-13.074-18.363-30.174-17.198-48.15 2.173-33.572 31.376-59.869 66.481-59.869H335.95c26.399 0 47.875-21.476 47.875-47.875h-15.73c0 17.725-14.42 32.145-32.145 32.145H208.158v-62.98h15.73v-15.73h-15.73v-33.596h55.579v57.715h-24.119v15.73h24.119v29.362h15.73v.003zm-86.892 121.254h47.378c-3.667 18.384-19.929 32.283-39.375 32.283h-27.622l15.663-9.397-8.092-13.488-24.831 14.899c6.159-14.276 20.37-24.297 36.879-24.297zm-12.048 70.898 8.092-13.488-15.663-9.398h27.623c19.446 0 35.708 13.899 39.375 32.284h-47.378c-16.51 0-30.719-10.021-36.879-24.296l24.83 14.898zM15.754 295.06c-.242-12.141 1.296-24.087 4.486-35.566l32.516 32.516-14.444 14.444 11.123 11.122 14.443-14.443 11.813 11.813c-6.346 10.23-10.382 21.961-11.399 34.543H29.107c-8.359-16.719-12.969-35.218-13.353-54.429zm38.362 88.642c-5.853-5.717-11.081-11.909-15.663-18.485h26.08c1.535 13.593 6.494 26.428 14.55 37.536-8.979-5.246-17.362-11.621-24.967-19.051zm31.241-81.337-22.359-22.358 10.442-10.443-11.123-11.123-10.442 10.443-25.807-25.807c6.191-14.186 15.07-27.361 26.404-38.924 11.222-11.448 24.378-20.706 38.668-27.455l4.402 16.51-13.219 13.219 11.123 11.122 6.778-6.78 18.653 69.952c-12.946 4.452-24.438 11.963-33.52 21.644zm107.071-122.759h-24.119v15.73h24.119v80.807h-46.061c-4.139 0-8.21.303-12.194.879l-4.724-17.718h6.353v-15.73h-10.547l-19.413-72.8c13.515-4.54 27.738-6.936 42.087-6.936h44.5v15.768z"/></svg>