<?xml version="1.0" encoding="iso-8859-1"?><svg xmlns="http://www.w3.org/2000/svg" xml:space="preserve" viewBox="0 0 512 512"><path d="M343.771 483.788h68.898c15.485 0 27.232-12.553 27.232-28.038V191.391c0-15.485 13.359-28.387 28.844-28.387h8.011c15.485 0 27.928-12.204 27.928-27.69V55.205c0-15.484-10.669-28.038-26.155-28.038H343.771" style="fill:#754c24"/><path d="M478.531 27.167h-74.33c15.485 0 28.387 12.553 28.387 28.038v80.109c0 15.485-12.901 27.69-28.387 27.69h-8.011c-15.484 0-28.386 12.901-28.386 28.387V455.75c0 14.113-10.449 25.675-24.033 27.634v.403h68.898c15.485 0 27.232-12.553 27.232-28.038V191.391c0-15.485 13.359-28.387 28.844-28.387h8.011c15.485 0 27.928-12.204 27.928-27.69V55.205c.002-15.484-10.668-28.038-26.153-28.038z" style="fill:#936037"/><path d="M35.701 35.004c-11.139 0-20.201 9.062-20.201 20.201v80.109c0 11.14 9.062 20.201 20.201 20.201 19.782 0 35.874 16.094 35.874 35.874v264.359c0 11.14 9.062 20.201 20.201 20.201h248.338c11.139 0 20.201-9.062 20.201-20.201V191.39c0-19.781 16.094-35.874 35.876-35.874h8.01c11.14 0 20.202-9.062 20.202-20.201v-80.11c0-11.14-9.062-20.201-20.202-20.201h-368.5z"/><path d="M478.531 27.167h-32.044c15.485 0 25.807 12.553 25.807 28.038v80.109c0 15.485-12.095 27.69-27.58 27.69h-8.011c-15.485 0-28.147 12.901-28.147 28.387V455.75c0 15.485-12.444 28.038-27.928 28.038h32.044c15.485 0 27.232-12.553 27.232-28.038V191.391c0-15.485 13.359-28.387 28.844-28.387h8.011c15.485 0 27.928-12.204 27.928-27.69V55.205c-.001-15.484-10.671-28.038-26.156-28.038z" style="fill:#754c24"/><path d="M404.201 27.167h-368.5c-15.485 0-28.039 12.553-28.039 28.038v80.109c0 15.485 12.553 28.038 28.038 28.038s28.038 12.553 28.038 28.038v264.359c.001 15.485 12.554 28.039 28.039 28.039h248.338c15.485 0 28.038-12.553 28.038-28.038V191.391c0-15.485 12.553-28.038 28.038-28.038h8.011c15.485 0 28.038-12.553 28.038-28.038v-80.11c0-15.484-12.554-28.038-28.039-28.038z" style="fill:#a67c52"/><path d="M35.701 35.004c-11.139 0-20.201 9.062-20.201 20.201v80.109c0 11.14 9.062 20.201 20.201 20.201 19.782 0 35.874 16.094 35.874 35.874v264.359c0 11.14 9.062 20.201 20.201 20.201h248.338c11.139 0 20.201-9.062 20.201-20.201V191.39c0-19.781 16.094-35.874 35.876-35.874h8.01c11.14 0 20.202-9.062 20.202-20.201v-80.11c0-11.14-9.062-20.201-20.202-20.201h-368.5z"/><path d="M404.201 28.212h-368.5c-15.485 0-28.387 11.509-28.387 26.993v80.109c0 15.485 12.204 28.038 27.69 28.038s27.69 12.553 27.69 28.039V455.75c0 15.484 13.598 29.083 29.083 29.083h248.338c15.485 0 27.69-13.598 27.69-29.083V191.391c0-15.485 12.901-27.342 28.387-27.342h8.011c15.485 0 27.342-13.249 27.342-28.735V55.205c-.002-15.484-11.859-26.993-27.344-26.993z" style="fill:#a67c52"/><path d="M386.827 139.319c11.807 0 21.379-9.571 21.379-21.379V72.579c0-11.807-9.571-21.379-21.379-21.379H53.075c-11.807 0-21.379 9.571-21.379 21.379v45.362c0 11.807 9.571 21.379 21.379 21.379 19.162 0 34.697 15.534 34.697 34.698V442.68c0 9.43 7.646 17.076 17.076 17.076h222.196c9.431 0 17.076-7.646 17.076-17.076V182.027c-.001-23.586 19.121-42.708 42.707-42.708z" style="fill:#c69c6d"/><path d="M327.044 467.592H104.847c-13.736 0-24.912-11.176-24.912-24.912V174.017c0-14.81-12.05-26.86-26.86-26.86-16.109 0-29.215-13.106-29.215-29.215V72.579c0-16.109 13.106-29.215 29.215-29.215h333.753c16.11 0 29.216 13.106 29.216 29.215v45.362c0 16.109-13.106 29.215-29.216 29.215-19.228 0-34.871 15.643-34.871 34.871v260.652c-.001 13.737-11.176 24.913-24.913 24.913zM53.075 59.037c-7.467 0-13.542 6.075-13.542 13.542v45.362c0 7.467 6.075 13.542 13.542 13.542 23.453 0 42.534 19.081 42.534 42.534v268.662c0 5.094 4.145 9.239 9.239 9.239h222.196c5.094 0 9.239-4.145 9.239-9.239V182.027c0-27.871 22.674-50.545 50.545-50.545 7.467 0 13.543-6.075 13.543-13.542V72.579c0-7.467-6.075-13.542-13.543-13.542H53.075z"/><path d="M144.196 140.016h15.673v15.673h-15.673zM192.261 115.984h15.673v15.673h-15.673zM199.576 75.233h16.718v15.673h-16.718zM216.294 171.363h15.673v15.673h-15.673zM120.163 260.18h15.673v15.673h-15.673zM175.543 308.245h16.718v15.673h-16.718zM231.967 267.494h15.673v15.673h-15.673zM175.543 219.429h16.718v15.673h-16.718zM63.739 91.951h15.673v15.673H63.739zM111.804 75.233h15.673v15.673h-15.673zM111.804 131.657h15.673v15.673h-15.673zM336.457 107.624h15.673v15.673h-15.673zM280.033 83.592h15.673v15.673h-15.673zM271.673 140.016h16.718v15.673h-16.718zM271.673 203.755h16.718v15.673h-16.718zM280.033 308.245h15.673v15.673h-15.673zM216.294 363.624h15.673v15.673h-15.673zM280.033 411.69h15.673v15.673h-15.673zM175.543 420.049h16.718v15.673h-16.718zM111.804 363.624h15.673v15.673h-15.673zM168.229 387.657h15.673v15.673h-15.673zM304.065 371.984h15.673v15.673h-15.673zM360.49 67.918h15.673v15.673H360.49z" style="fill:#603813"/><path d="M391.837 356.31h16.718v15.673h-16.718z"/><path d="M478.531 19.853H35.701C15.682 19.853 0 35.381 0 55.205v80.109c0 19.782 15.937 35.874 35.527 35.874 11.132 0 19.853 8.873 19.853 20.201v264.359c0 19.73 16.668 36.398 36.397 36.398H412.67c19.625 0 35.591-16.328 35.591-36.397V191.391c0-10.921 8.992-19.814 20.116-20.009l3.952-.019h4.427c19.433 0 35.243-16.172 35.243-36.049V55.205c.001-20.484-14.075-35.352-33.468-35.352zM360.49 455.75c0 11.234-9.331 20.723-20.376 20.723H91.777c-11.233 0-20.723-9.491-20.723-20.723V191.391c0-19.781-15.937-35.874-35.527-35.874-11.132 0-19.853-8.873-19.853-20.201v-80.11c0-11.035 8.797-19.679 20.028-19.679h368.5c11.231 0 20.028 8.643 20.028 19.679v80.109c0 11.235-8.985 20.376-20.028 20.376 0 0-11.47.132-13.148.375l-.452.066c-17.039 2.692-30.111 17.476-30.111 35.26V455.75zm52.18 20.723h-42.945c4.053-5.886 6.439-13.028 6.439-20.723v-44.06h39.706v-15.673h-39.706v-96.131h32.392v-15.673h-32.392v-56.424h15.673v-15.673h-15.673v-20.723c0-9.898 6.837-17.897 16.148-19.658l46.412-.214c-1.72 2.524-3.114 5.28-4.142 8.205H415.87v15.673h16.718v48.065h-40.751v15.673h40.751v64.784h-32.392v15.673h32.392v96.131h-32.392v15.673h32.392v4.354c0 11.425-8.935 20.721-19.918 20.721zm83.657-360.489h-32.392v15.673h32.392v3.657c0 11.426-8.596 20.376-19.57 20.376h-8.011c-.266 0-.529.015-.793.02l-34.447.159c4.027-5.836 6.397-12.919 6.397-20.554v-36.05h32.392V83.592h-32.392V55.205c0-7.339-2.154-14.087-5.878-19.679h44.506c7.931 0 15.904 4.896 17.492 15.673h-23.729v15.673h24.033v49.112z"/></svg>