<?xml version="1.0" encoding="iso-8859-1"?><svg xmlns="http://www.w3.org/2000/svg" xml:space="preserve" viewBox="0 0 512 512"><path d="M424.12 304.436c-27.577 0-51.561 15.619-63.608 38.47-8.289-17.842-22.977-32.199-41.113-40.012-4.944-52.777-49.439-94.103-103.428-94.103-28.046 0-53.527 11.158-72.235 29.275v-53.872c0-13.143-10.692-23.835-23.835-23.835-4.515 0-8.19-3.673-8.19-8.19v-40.028H96.068v40.028c0 13.143 10.692 23.835 23.835 23.835 4.515 0 8.19 3.673 8.19 8.19v72.051h.681c-9.469 14.59-15.384 31.699-16.494 50.1-5.269-1.235-10.753-1.909-16.394-1.909-39.628 0-71.868 32.235-71.868 71.869h15.645c0-31.29 25.222-56.224 56.223-56.224s56.224 24.934 56.224 56.224h15.645c0-18.426-6.975-35.246-18.414-47.978h2.278v-16.042c0-35.412 28.827-64.031 64.26-64.031 30.052 0 55.343 20.84 62.334 48.804-2.768.343-5.491.828-8.165 1.449-6.233-24.225-28.114-41.682-54.076-41.682-30.8 0-55.858 24.567-55.858 55.857h15.645c0-22.946 18.04-40.212 40.213-40.212 19.119 0 35.154 12.842 39.21 31.091-2.393 1.088-4.722 2.29-6.982 3.603-2.466-15.214-15.705-27.04-31.625-27.04-17.666 0-32.041 14.828-32.041 31.516h15.645c0-8.344 7.355-15.871 16.396-15.871s16.397 7.545 16.397 16.517v6.316c-15.275 14.589-24.823 35.109-24.823 57.704h15.645c0-32.787 24.636-59.831 56.342-63.728 0 .035.002.07.002.105h15.645c0-.041-.003-.081-.003-.122 31.769 3.839 56.473 30.913 56.473 63.745h15.645c0-31.29 25.222-56.224 56.223-56.224s56.223 24.934 56.223 56.224h15.645c-.001-39.635-32.241-71.87-71.869-71.87zm-129.905-7.74c-7.337-36.955-39.67-64.086-78.336-64.086-44.059 0-79.905 35.637-79.905 79.675v4.398c-2.623-1.77-5.376-3.358-8.228-4.776.417-48.657 39.826-87.471 88.227-87.471 43.639 0 79.958 31.557 86.993 73.426-2.867-.548-5.786-.936-8.751-1.166z" style="fill:#fbb03b"/><path d="M488.165 80.119H223.977c-8.842 0-16.011-7.169-16.011-16.011 0-8.843 7.169-16.011 16.011-16.011h264.189c8.843 0 16.011 7.169 16.011 16.011.001 8.843-7.168 16.011-16.012 16.011z" style="fill:#29abe2"/><path d="M488.165 80.119h-26.103c-7.691 0-13.925-6.235-13.925-13.925v-4.172c0-7.691 6.235-13.925 13.925-13.925h26.103c8.843 0 16.011 7.169 16.011 16.011.002 8.843-7.167 16.011-16.011 16.011z" style="fill:#f2f2f2"/><path d="M488.165 40.274H223.977c-10.336 0-19.153 6.615-22.448 15.832h-42.8c-3.559-13.696-16.027-23.838-30.821-23.838h-24.017v15.645h24.017c8.93 0 16.195 7.264 16.195 16.195s-7.266 16.195-16.195 16.195h-24.017v15.645h24.017c14.922 0 27.474-10.32 30.906-24.197h42.592c3.194 9.404 12.101 16.191 22.57 16.191h264.189C501.308 87.942 512 77.25 512 64.107s-10.692-23.833-23.835-23.833zM215.788 64.108c0-4.516 3.673-8.19 8.19-8.19h216.551v16.378H223.977c-4.515.001-8.189-3.673-8.189-8.188zm272.377 8.189h-31.993V55.919h31.993c4.515 0 8.19 3.673 8.19 8.19s-3.674 8.188-8.19 8.188zM14.986 32.116h40.677v15.645H14.986zM14.986 56.105h40.677V71.75H14.986zM14.986 81.135h40.677V96.78H14.986z"/><path d="M103.642 56.105h16.688V71.75h-16.688z"/><path d="M143.737 376.305h-15.645c0-17.731-14.449-32.206-32.207-32.206s-32.207 14.475-32.207 32.206H48.034c0-26.075 21.466-47.851 47.852-47.851s47.851 21.776 47.851 47.851z" style="fill:#fbb03b"/><path d="M119.719 376.305h-15.645c0-4.172-3.673-8.19-8.19-8.19s-8.19 4.018-8.19 8.19H72.05c0-13.559 10.692-23.835 23.835-23.835s23.834 10.276 23.834 23.835zM471.972 376.305h-15.645c0-17.731-14.449-32.206-32.207-32.206-17.758 0-32.207 14.475-32.207 32.206h-15.645c0-26.075 21.466-47.851 47.852-47.851 26.386 0 47.852 21.776 47.852 47.851z" style="fill:#fbb03b"/><path d="M447.954 376.305h-15.645c0-4.172-3.673-8.19-8.19-8.19s-8.19 4.018-8.19 8.19h-15.645c0-13.559 10.692-23.835 23.835-23.835s23.835 10.276 23.835 23.835zM319.863 376.305h-15.645c0-9.387-7.266-16.195-16.195-16.195s-16.194 6.808-16.194 16.195h-15.645c0-17.731 14.283-31.84 31.838-31.84 17.557 0 31.841 14.109 31.841 31.84z" style="fill:#fbb03b"/><path d="M343.88 376.305h-15.645c0-21.903-18.04-40.212-40.213-40.212s-40.212 18.309-40.212 40.212h-15.645c0-31.29 25.057-55.857 55.857-55.857 30.801 0 55.858 24.567 55.858 55.857z" style="fill:#fbb03b"/><circle cx="360.073" cy="296.274" r="32.023" style="fill:#c1272d"/><path d="M360.074 264.251c-4.253 0-8.295.869-12.009 2.375 11.726 4.755 20.014 16.215 20.014 29.648 0 13.432-8.289 24.893-20.014 29.648 3.713 1.506 7.755 2.375 12.009 2.375 17.686 0 32.023-14.337 32.023-32.023s-14.337-32.023-32.023-32.023z" style="fill:#ff1d25"/><circle cx="183.953" cy="336.304" r="32.023" style="fill:#c1272d"/><path d="M183.949 304.28c-4.253 0-8.295.869-12.009 2.375 11.726 4.755 20.014 16.215 20.014 29.648 0 13.432-8.289 24.893-20.014 29.648 3.714 1.506 7.755 2.375 12.009 2.375 17.686 0 32.023-14.337 32.023-32.023-.001-17.686-14.338-32.023-32.023-32.023z" style="fill:#ff1d25"/><path d="M443.574 480.405H68.425c-33.47 0-60.602-27.132-60.602-60.602v-27.46h496.355v27.46c0 33.47-27.133 60.602-60.604 60.602z" style="fill:#29abe2"/><path d="M432.184 391.95v24.767c0 35.174-25.373 63.888-60.547 63.888h68.852c35.174 0 63.661-28.713 63.661-63.888V391.95h-71.966z" style="fill:#54bce8"/><path d="M79.651 391.95v24.767c0 35.174 29.094 63.888 64.268 63.888H75.067c-35.174 0-67.383-28.713-67.383-63.888V391.95h71.967z" style="fill:#0c6d95"/><path d="M7.822 392.344h496.351v24.02H7.822z" style="fill:#f2f2f2"/><path d="M7.822 392.344h424.301v24.02H7.822z" style="fill:#e6e6e6"/><path d="M7.822 392.344h72.05v24.02H7.822z" style="fill:#ccc"/><path d="M31.674 407.593h15.645v15.645H31.674zM55.665 407.593h16.688v15.645H55.665zM79.654 407.593h15.645v15.645H79.654zM103.642 407.593h16.688v15.645h-16.688zM127.631 407.593h15.645v15.645h-15.645zM152.663 407.593h15.645v15.645h-15.645zM175.609 407.593h16.688v15.645h-16.688zM200.641 407.593h15.645v15.645h-15.645zM223.587 407.593h16.688v15.645h-16.688zM248.619 407.593h14.602v15.645h-14.602zM271.565 407.593h16.688v15.645h-16.688zM295.553 407.593h15.645v15.645h-15.645zM320.585 407.593h15.645v15.645h-15.645zM343.531 407.593h16.688v15.645h-16.688zM368.563 407.593h15.645v15.645h-15.645zM391.509 407.593h16.688v15.645h-16.688zM416.541 407.593h15.645v15.645h-15.645zM439.487 407.593h16.688v15.645h-16.688zM464.519 407.593h15.645v15.645h-15.645z"/><path d="M95.298 23.772h15.645v80.311H95.298zM72.353 23.772h15.645v80.311H72.353zM47.321 23.772h15.645v80.311H47.321z" style="fill:#fbb03b"/><path d="M0 384.52v31.865c0 39.614 32.229 71.843 71.844 71.843h368.314c39.614 0 71.843-32.229 71.843-71.843V384.52H0zm440.157 88.063H71.844c-28.667 0-52.372-21.579-55.766-49.343h8.295v-15.645h-8.728v-7.43h480.71v7.43h-7.849v15.645h7.416c-3.395 27.764-27.099 49.343-55.765 49.343zM183.948 376.147c21.971 0 39.846-17.875 39.846-39.846 0-21.971-17.875-39.846-39.846-39.846-21.97 0-39.844 17.875-39.844 39.846-.001 21.972 17.874 39.846 39.844 39.846zm0-64.045c7.296 0 13.843 3.25 18.284 8.372h-11.293v15.645h13.351v-12.901c2.437 3.776 3.858 8.266 3.858 13.084 0 9.776-5.83 18.211-14.193 22.026v-9.834h-13.351v11.772c-9.128-1.268-16.64-7.644-19.551-16.141h7.253V328.48h-7.253c3.26-9.516 12.289-16.378 22.895-16.378zM360.074 336.119c21.97 0 39.844-17.875 39.844-39.846 0-21.971-17.875-39.846-39.844-39.846-21.971 0-39.846 17.875-39.846 39.846.001 21.971 17.875 39.846 39.846 39.846zm0-64.046c4.711 0 9.108 1.358 12.832 3.696v12.523h10.01c.876 2.5 1.358 5.185 1.358 7.981 0 7.286-3.241 13.825-8.352 18.266v-13.873H362.57v15.645h11.057c-3.87 2.626-8.535 4.162-13.554 4.162-13.336 0-24.187-10.843-24.201-24.176h14.397v-15.645h-8.661c4.446-5.241 11.072-8.579 18.466-8.579z"/></svg>