<svg xmlns="http://www.w3.org/2000/svg" width="512" height="367" version="1.2"><style>.s2{fill:#fbb03b}.s3{fill:#f15a24}.s4{fill:#000}.s5{fill:#fff}.s6{fill:#a67c52}.s8{fill:#c1272d}</style><path id="Layer" d="M436.5 353.1h-361c-37.3 0-67.6-30.3-67.6-67.6v-201c0-37.3 30.3-67.6 67.6-67.6h361c37.3 0 67.6 30.3 67.6 67.6v201c0 37.3-30.3 67.6-67.6 67.6z" style="fill:#6b7e87"/><path d="M427.1 329.1 84.8 329c-29.2 0-52.9-23.6-52.9-52.9V93.9c0-29.3 23.7-53 53-53h342.2c29.3 0 53 23.7 53 53v182.2c0 29.3-23.7 52.9-53 52.9z" style="fill:#c7b299"/><path d="M79.9 137h-32c0 30.9 25.1 56 56 56H136c0-30.9-25.1-56-56.1-56zM79.9 249h-32c0-30.9 25.1-56 56-56H136c0 30.9-25.1 56-56.1 56z" class="s2"/><path d="m256 249-24 40h72c17.7 0 32-14.3 32-32M256 137l-24-40h72c17.7 0 32 14.3 32 32" class="s3"/><path d="M472.1 193s-75.3 64-168.1 64-168-64-168-64 75.2-64 168-64 168.1 64 168.1 64z" class="s2"/><path d="m360 137 1.4 1.4c14.5 14.4 22.6 34.1 22.6 54.6s-24 56-24 56-97.2 41-224-56c0 0 83.1-86.3 224-56z" class="s3"/><path d="m248 137 15.2-3.8c11.2-2.8 22.6-4.2 34.1-4.2H312l-96 96h-24l-16-8z" class="s2"/><path fill-rule="evenodd" d="M439 361H73c-40.2 0-73-32.8-73-73.1V82.1C0 41.8 32.8 9 73 9h366c40.2 0 73 32.8 73 73.1v205.8c0 40.3-32.8 73.1-73 73.1zM73 24.9c-31.5 0-57.2 25.6-57.2 57.2v205.8c0 31.6 25.7 57.2 57.2 57.2h366c31.5 0 57.2-25.6 57.2-57.2V82.1c0-31.6-25.7-57.2-57.2-57.2z" class="s4"/><path d="M352 144.9 248 248.8l24 7.9h24l80-87.9-8-23.9z" class="s2"/><path d="M400.5 177.6h15.9v15.8h-15.9z" class="s4"/><path d="M148 317.3c-26.5 0-48-21.5-48-47.9h15.9c0 16.9 14.4 32.1 32.1 32.1 17.7 0 32.1-15.2 32.1-32.1h15.8c0 26.4-21.5 47.9-47.9 47.9z" class="s5"/><path d="M148 293.3c-13.2 0-24-11.2-24-23.9h15.9c0 4.2 3.6 8.1 8.1 8.1 4.4 0 8.1-3.9 8.1-8.1h15.8c0 12.7-10.7 23.9-23.9 23.9zM431.8 137l-11.2-11.2c12.5-12.5 12.5-32.9 0-45.4s-32.9-12.5-45.4 0L364 69.2c9.1-9 21.1-14 33.9-14 12.8 0 24.8 5 33.9 14 9.1 9.1 14 21.1 14 33.9 0 12.8-5 24.8-14 33.9z" class="s5"/><path d="m414.8 120-11.2-11.2c1.6-1.5 2.4-3.5 2.4-5.7 0-2.1-.8-4.2-2.4-5.7-3.1-3.2-8.3-3.2-11.4 0L381 86.2c9.3-9.3 24.5-9.3 33.8 0 4.5 4.5 7 10.5 7 16.9 0 6.4-2.5 12.4-7 16.9zM72.2 121c-18.7-18.7-18.7-49.1 0-67.8 18.7-18.7 49.1-18.7 67.8 0l-11.2 11.2c-12.5-12.5-32.9-12.5-45.4 0s-12.5 32.9 0 45.4z" class="s5"/><path d="M89.2 104c-4.5-4.5-7-10.5-7-16.9 0-6.4 2.5-12.4 7-16.9 9.3-9.3 24.5-9.3 33.8 0l-11.2 11.2c-3.1-3.2-8.3-3.2-11.4 0-1.6 1.5-2.4 3.5-2.4 5.7s.8 4.2 2.4 5.7zM413.9 322.8c-12.3 0-24.5-4.7-33.9-14l11.2-11.2c12.5 12.5 32.9 12.5 45.4 0s12.5-32.9 0-45.4l11.2-11.2c18.7 18.7 18.7 49.1 0 67.8-9.3 9.3-21.6 14-33.9 14z" class="s5"/><path d="M413.9 298.8c-6.1 0-12.2-2.3-16.9-7l11.2-11.2c3.1 3.2 8.3 3.2 11.4 0 1.6-1.5 2.4-3.5 2.4-5.7s-.8-4.2-2.4-5.7l11.2-11.2c4.5 4.5 7 10.5 7 16.9 0 6.4-2.5 12.4-7 16.9-4.6 4.7-10.8 7-16.9 7z" class="s5"/><path d="M320 81h-24c-8.8 0-16-7.2-16-16 0-8.9 7.2-16 16-16h24c8.9 0 16 7.1 16 16 0 8.8-7.1 16-16 16zM192 105h-24c-8.9 0-16-7.2-16-16 0-8.9 7.1-16 16-16h24c8.8 0 16 7.1 16 16 0 8.8-7.2 16-16 16z" class="s6"/><path d="M160 137h-24c-8.9 0-16-7.2-16-16 0-8.9 7.1-16 16-16h24c8.8 0 16 7.1 16 16 0 8.8-7.2 16-16 16z" style="fill:#8c6239"/><path fill-rule="evenodd" d="M215.9 89c0 13.2-10.7 23.9-23.9 23.9h-9.5c.9 2.5 1.4 5.2 1.4 8.1 0 13.2-10.7 23.9-23.9 23.9h-24c-13.2 0-24-10.7-24-23.9s10.8-23.9 24-23.9h9.5c-1-2.6-1.5-5.3-1.5-8.1 0-13.2 10.8-24 24-24h24c13.2 0 23.9 10.8 23.9 24zm-47.8 32c0-4.5-3.7-8.1-8.1-8.1h-24c-4.5 0-8.1 3.6-8.1 8.1 0 4.4 3.6 8.1 8.1 8.1h24c4.4 0 8.1-3.7 8.1-8.1zm32-32c0-4.5-3.7-8.1-8.1-8.1h-24c-4.5 0-8.1 3.6-8.1 8.1 0 4.4 3.6 8.1 8.1 8.1h24c4.4 0 8.1-3.7 8.1-8.1z" class="s4"/><path d="M144.2 233.5H160v15.9h-15.8zM55.5 273.6h16.9v15.8H55.5zM72.4 296.8h15.8v15.9H72.4zM360.4 273.6h15.9v15.8h-15.9zM327.7 296.8h15.9v15.9h-15.9zM160 240.9h15.8v15.8H160zM360.4 97.4h15.9v15.8h-15.9zM231.7 57.3h15.9v15.9h-15.9zM208.5 312.7h15.8v16.8h-15.8zM463.8 129.1h15.9v15.8h-15.9z" class="s8"/><path fill-rule="evenodd" d="M488 86.1v197.8c0 29.3-23.8 53.1-53.1 53.1H77.1C47.8 337 24 313.2 24 283.9V86.1C24 56.8 47.8 33 77.1 33h357.8c29.3 0 53.1 23.8 53.1 53.1zm-15.8 0c0-20.5-16.7-37.2-37.3-37.2h-97.2c3.9 4.2 6.2 9.9 6.2 16.1 0 13.1-10.7 23.9-23.9 23.9h-24c-13.2 0-23.9-10.8-23.9-23.9 0-6.2 2.4-11.9 6.2-16.1H77.1c-20.6 0-37.3 16.7-37.3 37.2v197.8c0 20.5 16.7 37.2 37.3 37.2h357.8c20.6 0 37.3-16.7 37.3-37.2v-80.8c-7.7 5.8-23.7 17.3-45.7 28.9-20.6 10.9-49.6 23.3-82.8 29.3-2.1 20-19.1 35.7-39.7 35.7h-86l24.4-40.7c-18.4-5-38.9-12.7-60.9-24.3-17.1-9-30.6-18-39.4-24.3-6.6 28.2-32 49.2-62.2 49.2H40V249c0-24.1 13.4-45.1 33.2-56C53.4 182.1 40 161.1 40 137v-7.9h39.9c30.2 0 55.6 21 62.2 49.2 8.8-6.3 22.3-15.3 39.4-24.3 16-8.4 36.9-17.7 60.9-24.3L218 89.1h86c20.6 0 37.6 15.6 39.7 35.7 23.5 4.2 51.7 12.8 82.8 29.2 22 11.6 38 23.1 45.7 28.9zM287.9 65c0 4.5 3.7 8.1 8.1 8.1h24c4.5 0 8.1-3.6 8.1-8.1 0-4.4-3.6-8.1-8.1-8.1h-24c-4.4 0-8.1 3.7-8.1 8.1zM392 193.1c0 14.8-3.9 29.1-11 41.8 36.7-13.3 65.1-32.2 78.2-41.8-13.1-9.6-41.5-28.6-78.2-41.8 7.1 12.6 11 26.9 11 41.8zm-133.4-67.2c14.4-2.9 29.6-4.8 45.4-4.8 6.8 0 14.6.4 23.2 1.3-2.9-10.1-12.2-17.5-23.2-17.5h-58zM167.9 206l52-52c-33.2 13-58.8 30.1-71 39.1 4.6 3.3 11 7.9 19 12.9zm14.1 8.3c6.8 3.7 14.3 7.6 22.3 11.3l88.3-88.3c-13.8.9-27.1 3.1-39.8 6.2zm38 18c8 3.1 16.4 6 25.2 8.5l99.6-99.6c-9.7-1.9-19.6-3.3-29.9-3.8zm43.3 12.7c9.6 2 19.6 3.3 29.8 3.9l79.1-79.1c-2.8-7.7-6.9-14.9-12.3-21.3zM246 281.1h58c11 0 20.3-7.4 23.2-17.4-7.6.8-15.3 1.2-23.2 1.2-12.2 0-27.6-1.1-45.4-4.8zm109.2-38.4.6-.6c13.1-13.1 20.3-30.5 20.3-49.1q0-2.4-.1-4.7l-60.5 60.5c13.7-.8 27.1-3 39.7-6.1zm-227.8-57.6c-3.8-22.8-23.6-40.2-47.5-40.2H56.5c3.8 22.8 23.6 40.2 47.4 40.2zM104 200.9c-23.8 0-43.7 17.5-47.5 40.2H80c23.8 0 43.7-17.4 47.4-40.2z" class="s4"/></svg>