<!DOCTYPE svg PUBLIC "-//W3C//DTD SVG 1.1//EN" "http://www.w3.org/Graphics/SVG/1.1/DTD/svg11.dtd"><svg xmlns="http://www.w3.org/2000/svg" xml:space="preserve" width="800" height="800" viewBox="0 0 512 512"><path d="M22.941 393.786v95.935h466.118v-95.935" style="fill:#ff1d25"/><path d="M22.941 393.786v95.935h305.16l79.748-96.036" style="fill:#bf161c"/><path d="M199.922 256.471c27.227-25.674 63.926-41.409 104.302-41.409 83.981 0 152.06 68.079 152.06 152.06v26.287H79.751v-16.022c0-8.849 7.173-16.022 16.022-16.022 10.259 0 20.098-4.075 27.352-11.33l36.738-36.738 40.059-56.826z" style="fill:#ef9434"/><path d="M23.672 393.406h41.951v96.133H23.672z" style="fill:#911d22"/><path d="M368.158 393.408v-72.101c-13.273 0-24.034 10.76-24.034 24.034v16.022h-32.045c-8.849 0-16.022 7.173-16.022 16.022v16.022h72.101v.001z" style="fill:#d78f3c"/><path d="M172.841 333.399c10.817 18.928 33.134 29.424 54.038 23.236 7.432-2.2 14.437-6.233 20.304-12.099 5.867-5.867 9.899-12.871 12.099-20.304 6.188-20.904-4.308-43.223-23.236-54.038l-68.171-38.955-33.989 33.989 38.955 68.171z" style="fill:#ef9434"/><path d="M172.841 333.399c10.817 18.928 33.134 29.424 54.038 23.236 7.432-2.2 14.437-6.233 20.304-12.099 5.867-5.867 9.899-12.871 12.099-20.304 6.188-20.904-4.308-43.223-23.236-54.038l-68.171-38.955-33.989 33.989 38.955 68.171z" style="fill:#ef9434"/><path d="m236.047 270.193-68.171-38.955-13.492 13.493 44.558 25.461c18.928 10.817 29.424 33.134 23.236 54.038-2.2 7.433-6.233 14.437-12.098 20.304-4.227 4.227-9.06 7.467-14.203 9.791 9.596 4.294 20.475 5.426 31.005 2.309 7.433-2.2 14.437-6.233 20.304-12.099 5.867-5.867 9.899-12.871 12.099-20.304 6.184-20.904-4.31-43.221-23.238-54.038z" style="fill:#d78f3c"/><path d="M303.927 215.062c-1.828 0-3.703.199-5.515.263 63.198 18.45 109.311 76.724 109.311 145.882v24.236H80.293v8.342H455.69V367.12c0-83.979-67.783-152.058-151.763-152.058z" style="fill:#d78f3c"/><path d="M0 385.439h512v15.642H0zM496.358 497.021H15.642v-87.593h15.641v71.951h449.434v-71.951h15.641z"/><path d="M151.202 416.722h40.668v15.642h-40.668zM320.13 416.722h40.668v15.642H320.13z" style="fill:#fbb03b"/><path d="M304.489 465.738h-96.978v-33.369h-7.299v-15.642h22.941v33.369h65.694v-33.369h22.941v15.642h-7.299z" style="fill:#fff"/><path d="M344.114 273.863h40.668v15.642h-40.668zM320.13 289.504h23.984v15.642H320.13z"/><path d="M200.212 296.804h15.642v15.642h-15.642z" style="fill:#fff"/><path d="M304.17 207.169c-36.913 0-72.166 12.53-100.526 35.501l-37.075-21.186-15.688 15.688-23.663-23.664V169.59h-15.642v28.278l-17.479-17.479-11.061 11.06 17.766 17.766H71.951v15.642h44.493l23.376 23.376-15.687 15.687 26.925 47.12-33.461 33.462c-5.83 5.829-13.579 9.039-21.823 9.039-13.147 0-23.843 10.696-23.843 23.843h15.642c0-4.523 3.679-8.201 8.201-8.201 9.275 0 18.135-2.7 25.687-7.724h29.742v-15.642h-12.8l20.701-20.7 6.949 12.16c10.328 18.072 29.398 28.915 48.732 28.915 4.799 0 9.615-.668 14.316-2.059 8.872-2.626 17.038-7.49 23.615-14.068 6.579-6.577 11.443-14.743 14.068-23.615 6.998-23.643-4.296-50.158-26.855-63.049l-21.594-12.339c24.697-18.319 54.608-28.253 85.838-28.253 60.592 0 112.571 37.588 133.887 90.681h-37.635v15.642h42.887c3.306 12.109 5.08 24.843 5.08 37.987v9.98h15.642v-9.98c-.001-88.196-71.715-159.95-159.864-159.95zm-72.004 69.815c2.16 1.235 4.173 2.64 6.039 4.184h-22.352v15.642h34.144c3.448 7.971 4.256 16.857 1.785 25.204-.842 2.843-2.021 5.577-3.47 8.165h-24.117v15.642h8.353c-2.506 1.379-5.146 2.505-7.888 3.316-16.761 4.961-35.699-3.29-45.029-19.618l-22.863-40.009h19.459v-15.642H147.83l-4.191-7.334 25.542-25.542 35.22 20.125.85.901c.092-.087.187-.17.278-.257l26.637 15.223z"/><path d="M151.202 361.455h25.026v15.642h-25.026z" style="fill:#fff"/><path d="m200.344 179-4.797-19.188c-2.526-10.101-1.351-20.793 3.306-30.106l2.082-4.168c3.923-7.844 3.923-17.208.001-25.05-6.111-12.223-6.111-26.818 0-39.04l2.084-4.169c2.988-5.975 3.741-12.835 2.12-19.317l-4.798-19.188 15.175-3.794 4.798 19.188c2.526 10.101 1.351 20.793-3.306 30.107l-2.084 4.169c-3.921 7.843-3.921 17.207 0 25.049 6.112 12.222 6.112 26.818 0 39.04l-2.082 4.167c-2.989 5.977-3.743 12.838-2.121 19.318l4.797 19.188L200.344 179zM254.39 203.034l-4.005-16.022c-2.931-11.723-2.931-24.116 0-35.839 2.311-9.241 2.311-19.01 0-28.251-2.931-11.723-2.931-24.116 0-35.84l4.005-16.022 15.175 3.794-4.005 16.022c-2.311 9.241-2.311 19.011 0 28.252 2.931 11.723 2.931 24.116 0 35.839-2.311 9.241-2.311 19.01 0 28.251l4.005 16.023-15.175 3.793zM293.994 130.569l-4.63-23.152c-2.519-12.598-.743-25.865 5.003-37.356 4.526-9.052 5.666-19.445 3.212-29.263l-3.503-14.013 15.175-3.794 3.503 14.013c3.359 13.438 1.798 27.663-4.397 40.052-4.197 8.396-5.496 18.09-3.655 27.294l4.63 23.152-15.338 3.067zM336.455 194.66l-1.534-7.666c-4.463-22.319-3.904-45.787 1.615-67.867l15.175 3.794c-4.963 19.847-5.464 40.942-1.453 61.004l1.534 7.666-15.337 3.069zM328.473 72.618h15.642v16.684h-15.642zM375.979 377.386h-15.642v-46.245c-4.999 2.764-8.392 8.093-8.392 14.199v23.843H312.08c-4.524 0-8.202 3.679-8.202 8.201h-15.642c0-13.147 10.697-23.843 23.844-23.843h24.224v-8.201c0-17.564 14.29-31.855 31.855-31.855h7.821v63.901z"/><path d="M296.147 241.537h15.642v15.642h-15.642zM424.407 361.455h15.642v15.642h-15.642zM280.505 257.178h15.642v15.642h-15.642z" style="fill:#fff"/></svg>