<?xml version="1.0" encoding="iso-8859-1"?><svg xmlns="http://www.w3.org/2000/svg" xml:space="preserve" viewBox="0 0 512 512"><path d="M136.429 79.479h63.742v24.034h-63.742z" style="fill:#b20209"/><path d="m151.833 79.456 8.013-72.141h16.025l8.013 72.128" style="fill:#ff1d25"/><path d="M111.768 103.523h112.186v40.063H111.768z" style="fill:#ff4a51"/><path d="M111.768 103.523h88.141v40.063h-88.141z" style="fill:#ff1d25"/><path d="M111.768 103.523h16.025v40.063h-16.025z" style="fill:#b20209"/><path d="M95.738 143.586h144.234v360.581H95.738z" style="fill:#ff4a51"/><path d="M95.738 143.586h112.186v360.581H95.738z" style="fill:#ff1d25"/><path d="M239.88 352.148h-72.102v88.821h72.102" style="fill:#fff"/><path d="M95.738 143.586h24.034v360.581H95.738z" style="fill:#b20209"/><path d="M312.095 79.479h63.632v24.034h-63.632z" style="fill:#aa5e04"/><path d="m328.116 79.456 8.013-72.141h16.026l8.013 72.128" style="fill:#f7931e"/><path d="M288.051 103.523h112.186v40.063H288.051z" style="fill:#f9a94b"/><path d="M288.051 103.523h88.141v40.063h-88.141z" style="fill:#f7931e"/><path d="M288.051 103.523h16.025v40.063h-16.025z" style="fill:#aa5e04"/><path d="M272.021 143.586h144.234v360.581H272.021z" style="fill:#f9a94b"/><path d="M272.021 143.586h112.186v360.581H272.021z" style="fill:#f7931e"/><path d="M272.021 143.586h24.034v360.581h-24.034z" style="fill:#aa5e04"/><path d="M95.677 352.148h40.753v88.821H95.677" style="fill:#fff"/><path d="M231.52 127.484h-15.674v-16.719H119.71v16.719h-15.674V95.09H231.52zM190.793 71.057 182.885 0h-30.051l-7.921 71.057h-8.483v15.674h63.742V71.057h-9.379zm-23.936-55.383h2.001l6.163 55.382h-14.338l6.174-55.382zM87.905 135.746V512h159.906V135.746H87.905zM103.58 407.53v-48.068h24.49v73.146h-24.49v-9.405h16.131V407.53H103.58zm0 88.796v-48.043h40.165V343.788H103.58V151.42h128.558v192.368h-72.719v104.495h72.719v48.043H103.58zm128.558-104.47v8.36h-16.292v15.674h16.292v16.719h-57.045v-73.146h57.045v16.719h-31.966v15.674h31.966z"/><path d="M111.35 463.957h48.068v15.674H111.35zM167.777 463.957h15.674v15.674h-15.674zM152.103 168.237h63.742v15.674h-63.742zM127.024 168.237h16.719v15.674h-16.719zM272.273 352.148h72.101v88.821h-72.101M416.476 352.148h-40.753v88.821h40.753" style="fill:#fff"/><path d="M408.116 127.484h-15.674v-16.719h-96.135v16.719h-15.674V95.09h127.483zM367.087 71.057 359.167 0h-30.051l-7.908 71.057h-9.227v15.674h63.742V71.057h-8.636zm-23.946-55.383h2.001l6.175 55.382h-14.338l6.162-55.382zM264.189 135.746V512h159.905V135.746H264.189zm15.674 264.469v-8.36h32.118v-15.674h-32.118v-16.719h57.196v73.146h-57.196V415.89h16.443v-15.674h-16.443zm0 96.111v-48.043h72.871V343.788h-72.871V151.42H408.42v192.368h-40.013v104.495h40.013v48.043H279.863zm128.557-73.122v9.405h-24.339v-73.146h24.339v48.068h-17.024v15.674h17.024z"/><path d="M296.306 463.957h87.776v15.674h-87.776zM303.621 240.338h-15.674v-72.101h24.034v15.674h-8.36zM287.946 256.013h15.674v15.674h-15.674z" style="fill:#fff"/></svg>