<?xml version="1.0" encoding="iso-8859-1"?><svg xmlns="http://www.w3.org/2000/svg" xml:space="preserve" viewBox="0 0 512 512"><path d="M202.462 366.812c-13.995-13.995-32.604-21.704-52.396-21.704H.018v-15.673h150.048c23.979 0 46.523 9.338 63.479 26.294l-11.083 11.083zM120.163 477.854h263.314v15.998H120.163z" style="fill:#ff931e"/><path d="M491.984 361.27c-13.253 0-23.998 10.745-23.998 23.998 0 48.598-39.396 87.994-87.994 87.994H132.008c-48.598 0-87.994-39.396-87.994-87.994 0-13.253-10.745-23.998-23.998-23.998" style="fill:#bdccd4"/><path d="M399.99 361.424c-13.253 0-23.998 10.651-23.998 23.904 0 48.598-39.396 87.9-87.994 87.9h91.994c48.598 0 87.994-39.302 87.994-87.9 0-13.253 10.745-23.904 23.998-23.904H399.99z" style="fill:#cad6dd"/><path d="M108.01 361.424c13.253 0 23.998 10.651 23.998 23.904 0 48.598 39.396 87.9 87.994 87.9h-91.994c-48.598 0-87.994-39.302-87.994-87.9 0-13.253-10.745-23.904-23.998-23.904h91.994z" style="fill:#8e999f"/><path d="M120.163 489.944h263.314v15.673H120.163z"/><path d="M216.294 385.454h79.412v15.673h-79.412z" style="fill:#ff931e"/><path d="M0 353.065v15.673h20.016c8.912 0 16.161 7.618 16.161 16.53 0 52.842 42.989 95.831 95.831 95.831h247.984c52.84 0 95.831-42.989 95.831-95.831 0-8.912 7.25-16.53 16.161-16.53H512v-15.673H0zm460.149 32.204c0 .064-.004.125-.005.188H304.065v15.673h154.501c-7.382 36.627-39.805 64.296-78.574 64.296H132.008c-38.77 0-71.192-27.669-78.574-64.296h154.501v-15.673H51.856c0-.064-.005-.125-.005-.188 0-6.049-1.697-11.709-4.637-16.53h417.574c-2.942 4.821-4.639 10.481-4.639 16.53zM159.283 300.185l-14.552-5.821 8-19.998c4.407-11.02 4.407-23.157 0-34.177-5.91-14.773-5.91-31.044 0-45.818 4.407-11.02 4.407-23.157 0-34.177-5.91-14.774-5.91-31.046 0-45.819 4.407-11.019 4.407-23.157 0-34.177l-8-19.998 14.552-5.821 8 19.998c5.909 14.774 5.909 31.045 0 45.819-4.407 11.019-4.407 23.157 0 34.177 5.91 14.773 5.91 31.044 0 45.818-4.407 11.02-4.407 23.157 0 34.177 5.909 14.774 5.909 31.045 0 45.819l-8 19.998zM231.278 332.183l-14.552-5.821 8-19.998c4.407-11.019 4.407-23.157 0-34.177-5.909-14.774-5.909-31.045 0-45.819l8-19.999 14.552 5.821-8 19.998c-4.407 11.02-4.407 23.157 0 34.177 5.91 14.773 5.91 31.044 0 45.818l-8 20zM216.726 124.197l-8-19.998c-5.91-14.773-5.91-31.045 0-45.819l8-19.999 14.552 5.821-8 19.998c-4.407 11.019-4.407 23.157 0 34.177l8 19.998-14.552 5.822zM287.275 252.189l-14.553-5.821 8-19.999c4.408-11.018 4.407-23.157 0-34.177-5.909-14.773-5.909-31.045 0-45.818 4.407-11.02 4.408-23.157 0-34.177-5.909-14.773-5.909-31.045 0-45.819 4.408-11.018 4.407-23.157 0-34.177l-8-19.998 14.553-5.821 8 19.998c5.908 14.774 5.908 31.046 0 45.819-4.408 11.019-4.408 23.157 0 34.177 5.908 14.774 5.908 31.045 0 45.819-4.408 11.019-4.408 23.157 0 34.177 5.908 14.774 5.908 31.046 0 45.819l-8 19.998zM359.27 300.184l-14.553-5.82 7.999-19.998c4.408-11.02 4.408-23.157 0-34.177-5.908-14.774-5.908-31.045 0-45.819 4.408-11.02 4.408-23.157 0-34.177-5.908-14.774-5.908-31.045 0-45.819l8-19.999 14.553 5.821-8 19.999c-4.408 11.018-4.407 23.157 0 34.177 5.909 14.773 5.909 31.045 0 45.818-4.407 11.02-4.408 23.157 0 34.177 5.909 14.773 5.909 31.045 0 45.819l-7.999 19.998z"/></svg>