<svg xmlns="http://www.w3.org/2000/svg" width="512" height="333" version="1.2"><style>.s0{fill:#ff1d25}.s2{fill:#c1272d}.s3{fill:#ff4a51}.s4{fill:#000}.s5{fill:#fff}</style><path id="Layer" d="M257.6 275.2c-26.9 27.3-63.4 44.3-104.2 44.3C74 319.5 9.3 255.2 9.3 175.7v-23.9c0-44.2 35.9-80.3 80-80.3h127.9l40.4 16.3v187.4z" class="s0"/><path d="M210 56v15.9l-32.4 7.9 7.8 32-8.1 8-24-16-24 16-8-8 7.9-32-32-7.9V56h56z" style="fill:#39b54a"/><path d="M185.4 287.6c-79.4 0-144-64.4-144-143.8v-24c0-13.9 3.4-26.9 9.6-38.2-24.8 13.5-41.7 39.9-41.7 70.2v23.9c0 79.5 64.7 143.8 144.1 143.8 40.8 0 80.4-17 104.2-44.3v-7c-23.8 12.3-46 19.4-72.2 19.4z" class="s2"/><path d="M504.8 175.7c0 79.5-64.4 143.8-143.8 143.8s-143.8-64.3-143.8-143.8v-23.9c0-44.2 35.8-79.9 79.9-79.9 26.2 0 49.3 12.6 63.9 32.1 14.6-19.5 37.7-32.1 63.9-32.1 44.1 0 79.9 35.7 79.9 79.9z" class="s0"/><path d="M273.1 175.7v-23.9c0-34.4 21.6-63.5 52-74.8-8.7-3.3-18.1-5.1-28-5.1-44.1 0-79.9 35.7-79.9 79.9v23.9c0 79.5 64.4 143.8 143.8 143.8 9.6 0 18.9-.9 28-2.7-66.1-13-115.9-71.2-115.9-141.1z" class="s2"/><path d="M345 279.2v-39.6c0-8.8-7.1-15.9-16-15.9-8.8 0-16-7.2-16-16v-16c0-8.8 7.2-16 16-16 8.9 0 16-7.1 16-16v-7.9c0-27-22.3-48.8-49.4-48-26.2.8-46.5 23.7-46.5 50 0 0-16.8 101.7 80 136.9 7.7 2.8 15.9-3.2 15.9-11.5z" class="s3"/><path d="M266.2 153.8c0-25.3 18.8-47.4 43.5-49.7-2-.2-4-.3-6.1-.3-26.3.8-46.5 23.7-46.5 50 0 0-16.8 101.7 80 136.9 2.9 1 5.9.8 8.5-.3-96.1-35.4-79.4-136.6-79.4-136.6z" class="s0"/><path d="M377 279.2v-39.6c0-8.8 7.1-15.9 16-15.9 8.8 0 15.9-7.2 15.9-16v-16c0-8.8-7.1-16-15.9-16-8.9 0-16-7.1-16-16v-7.9c0-27 22.2-48.8 49.4-48 26.2.8 46.5 23.7 46.5 50 0 0 16.8 101.7-80 136.9-7.8 2.8-15.9-3.2-15.9-11.5z" class="s3"/><path fill-rule="evenodd" d="M333 299.1c-2.2 0-4.4-.4-6.6-1.1-53.1-19.4-73.4-58-81.1-87-7.6-28.8-4.6-53.5-3.9-57.8.3-30.7 24.4-56.2 54-57.1 15.2-.5 29.6 5.1 40.5 15.7 10.9 10.6 16.9 24.8 16.9 40v7.9c0 13.1-10.7 23.8-23.8 23.8-4.5 0-8.2 3.7-8.2 8.2v16c0 4.5 3.7 8.2 8.2 8.2 13.1 0 23.8 10.7 23.8 23.7v39.6c0 6.5-3.2 12.6-8.6 16.4-3.3 2.3-7.2 3.5-11.2 3.5zm-35.9-187.5h-1.3c-21.4.6-38.9 19.6-38.9 42.2v.6l-.1.6c-.1.3-3.9 24.6 3.7 52.6 9.8 36.7 33.8 62.2 71.2 75.8 1.7.6 3-.1 3.6-.5.6-.4 1.9-1.6 1.9-3.7v-39.6c0-4.5-3.6-8.2-8.2-8.2-13.1 0-23.7-10.6-23.7-23.7v-16c0-13.1 10.6-23.7 23.7-23.7 4.6 0 8.2-3.7 8.2-8.3v-7.9c0-11-4.3-21.3-12.2-28.9-7.5-7.3-17.4-11.3-27.9-11.3zM389 299.1c-4 0-7.9-1.2-11.3-3.5-5.3-3.8-8.5-9.9-8.5-16.4v-39.6c0-13 10.7-23.7 23.8-23.7 4.5 0 8.2-3.7 8.2-8.2v-16c0-4.5-3.7-8.2-8.2-8.2-13.1 0-23.8-10.7-23.8-23.8v-7.9c0-15.2 6-29.4 16.9-40 10.9-10.6 25.3-16.2 40.5-15.7 29.6.9 53.7 26.4 54 57.1.6 4.3 3.7 29-3.9 57.8-7.7 29-28 67.6-81.1 87-2.2.7-4.4 1.1-6.6 1.1zm35.9-187.5c-10.5 0-20.4 4-28 11.3-7.8 7.7-12.2 17.9-12.2 28.9v7.9c0 4.6 3.7 8.3 8.2 8.3 13.1 0 23.8 10.6 23.8 23.7v16c0 13.1-10.7 23.7-23.8 23.7-4.5 0-8.2 3.7-8.2 8.2v39.6c0 2.1 1.4 3.3 1.9 3.7.7.4 2 1.1 3.7.5 37.6-13.7 61.6-39.4 71.4-76.4 7.3-27.9 3.5-51.7 3.5-52l-.1-.6v-.6c0-22.6-17.5-41.6-38.9-42.2h-1.3z" class="s4"/><path d="m306.6 143.8-10.8-11.7 11.5-10.5 10.8 11.8zM291.5 171.3l-14.8-6.1 6-14.4 14.8 6.2zM273.5 203.3l-.6-15.5 15.9-.7.7 15.5zM286.5 239.1l-7.1-13.8 14.2-7.4 7.1 13.8zM313.6 266.1l-12.3-9.5L311 244l12.3 9.4zM408.3 266.1l-9.8-12.7 12.3-9.4 9.8 12.7zM435.3 239.1l-14.2-7.4 7.2-13.7 14.2 7.4zM448.4 203.3l-16-.7.7-15.5 16 .7zM430.3 171.3l-5.9-14.3 14.8-6.2 5.9 14.4zM415.3 143.9l-11.5-10.5 10.8-11.8 11.5 10.5z" class="s5"/><path fill-rule="evenodd" d="M512 151.8v23.9c0 83.6-68.2 151.6-152 151.6-39.8 0-76-15.3-103.1-40.3-27.9 25.9-65.4 40.6-104.4 40.6C68.4 327.6 0 259.5 0 175.7v-23.9c0-47.6 39.9-86.3 89-86.5V48.7h56.8V8.4h15.6v40.3h54.8v16.6h1c13.4 0 26.2 3 38.1 8.8 12.3-6.4 26.2-10 41-10 21.2 0 41.6 7.7 57.4 21.3V56h15.6v27.8c15.4-12.7 34.7-19.7 55.1-19.7 48.3 0 87.6 39.3 87.6 87.7zM200.7 64.3h-96.2v1h1v.7l32.8 8.2-8.5 35.2.4.4 23-15.3 22.9 15.3.3-.3-9-35.3 33.3-8.4zm-48.2 247.9c34.9 0 68.6-13.1 93.5-36.2-23.7-26.7-38.1-61.8-38.1-100.2v-24c0-27 12.4-51.2 31.8-67.3-7.2-2.4-14.7-3.6-22.5-3.6h-12.5l-18.4 4.6 7.3 28.7-15.5 15.7-24.9-16.7-24.9 16.6-15.6-15.5 6.9-28.7-19-4.7H89.3c-40.7 0-73.8 31.8-73.8 70.9v24c0 36.3 14.3 70.5 40.3 96.3 25.9 25.8 60.3 40.1 96.7 40.1zm344-160.4c0-39.8-32.3-72.1-72.1-72.1-22.8 0-43.8 10.5-57.6 29l-6.2 8.3-6.2-8.3c-13.6-18.2-35.3-29-58.1-29-40.2 0-72.9 32.3-72.9 72.1v24c0 75 61.3 136.1 136.6 136.1 75.2 0 136.5-61.1 136.5-136.1z" class="s4"/><path d="M59.2 244.3c-16.7-22.2-25.6-48.7-25.6-76.6h15.5c0 24.8 7.8 47.7 22.5 67.3zM93.1 275.7c-6.6-4.2-12.9-9.1-18.6-14.4L85 249.9c5.1 4.7 10.6 9 16.4 12.7z" class="s5"/></svg>